<svg xmlns="http://www.w3.org/2000/svg" width="24" height="24" fill="currentColor" viewBox="0 0 24 24">
  <path d="m10.71 11.29-2.5-2.5a1.004 1.004 0 0 0-1.42 1.42l.8.79H4V7a1 1 0 0 0-2 0v10a1 1 0 1 0 2 0v-4h3.59l-.8.79a1 1 0 0 0 .325 1.639 1 1 0 0 0 1.095-.219l2.5-2.5a1 1 0 0 0 .21-.33 1 1 0 0 0 0-.76 1 1 0 0 0-.21-.33ZM21 6a1 1 0 0 0-1 1v4h-3.59l.8-.79a1.005 1.005 0 0 0-1.42-1.42l-2.5 2.5a1 1 0 0 0-.21.33 1 1 0 0 0 0 .76 1 1 0 0 0 .21.33l2.5 2.5a1.002 1.002 0 0 0 1.639-.325 1 1 0 0 0-.219-1.095l-.8-.79H20v4a1 1 0 0 0 2 0V7a1 1 0 0 0-1-1Z"/>
</svg>
