<svg xmlns="http://www.w3.org/2000/svg" width="24" height="24" fill="currentColor" viewBox="0 0 24 24">
  <path d="M21.71 2.29a1 1 0 0 0-1.42 0l-6.17 6.17a1 1 0 0 0 .71 1.71.998.998 0 0 0 .71-.29l6.17-6.17a1.001 1.001 0 0 0 0-1.42ZM9.88 8.46a1.004 1.004 0 0 0-1.42 1.42l5.66 5.66a1 1 0 0 0 .71.29.998.998 0 0 0 .71-1.71L9.88 8.46Zm-1.42 5.66L4 18.59V17a1 1 0 0 0-2 0v4a1 1 0 0 0 .08.38 1 1 0 0 0 .54.54c.12.051.25.078.38.08h4a1 1 0 1 0 0-2H5.41l4.47-4.46a1.004 1.004 0 1 0-1.42-1.42Z"/>
  <path d="M21 8a1 1 0 0 1-1-1V4h-3a1 1 0 1 1 0-2h4a1 1 0 0 1 1 1v4a1 1 0 0 1-1 1Z"/>
</svg>
