<svg xmlns="http://www.w3.org/2000/svg" width="24" height="24" fill="currentColor" viewBox="0 0 24 24">
  <path d="M20.444 9.055a8.505 8.505 0 0 0-2.173-4.334 8.402 8.402 0 0 0-1.622-1.357 8.489 8.489 0 0 0-3.64-1.31A4.155 4.155 0 0 1 12.527 2h-1.135c-.012.029-.038.018-.06.02a8.834 8.834 0 0 0-.87.114 8.453 8.453 0 0 0-5.177 3.104 8.359 8.359 0 0 0-1.84 4.709 8.59 8.59 0 0 0 .186 2.529 8.15 8.15 0 0 0 .624 1.79l.073.146a8.6 8.6 0 0 0 1.783 2.396 8.53 8.53 0 0 0 5.764 2.333c.1.001.127.026.126.128-.004.874-.002 1.748-.002 2.621 0 .034.003.068.005.11l.063-.026a17.99 17.99 0 0 0 4.49-2.966c.267-.243.523-.497.769-.762.105-.114.21-.23.315-.342.163-.175.304-.37.458-.553a9.06 9.06 0 0 0 .494-.663c.349-.499.656-1.025.918-1.575.132-.278.258-.56.37-.847a.09.09 0 0 0 .01-.016c.3-.786.501-1.605.6-2.44.037-.29.06-.584.075-.877a8.139 8.139 0 0 0-.123-1.878Zm-9.19 2.82a2.503 2.503 0 0 1-.84 1.877l-.084.08c-.276.22-.594.384-.933.481a3.78 3.78 0 0 1-.448.085.21.21 0 0 1-.235-.152l.001-.968c.006-.095-.032-.197.044-.28a.267.267 0 0 1 .138-.085c.172-.032.339-.088.494-.169a1.13 1.13 0 0 0 .538-.731l.036-.151-2.042-.004a.651.651 0 0 1-.174-.018.413.413 0 0 1-.307-.385c0-1.029 0-2.058.002-3.087a.467.467 0 0 1 .138-.436c.07-.064.161-.1.257-.102h3.001a.416.416 0 0 1 .4.527c.015.05.021.102.016.153 0 1.121.007 2.243-.002 3.364Zm5.303.004a2.557 2.557 0 0 1-1.556 2.328c-.024.01-.046.023-.069.035l-.038.01-.021.013c-.194.056-.39.099-.59.129a.217.217 0 0 1-.269-.217l-.003-.322.006-.578c-.001-.042-.003-.084-.003-.127 0-.148.057-.21.241-.252.234-.04.453-.143.634-.297.205-.197.338-.457.377-.74l-1.886-.003h-.205a.416.416 0 0 1-.405-.27.42.42 0 0 1-.027-.17c0-1.016 0-2.033.002-3.049l-.002-.03a.435.435 0 0 1 .204-.45.39.39 0 0 1 .213-.059h2.982a.416.416 0 0 1 .399.527c.016.05.021.101.017.153v3.37Z"/>
</svg>
