<svg xmlns="http://www.w3.org/2000/svg" width="24" height="24" fill="currentColor" viewBox="0 0 24 24">
  <path d="M20.437 7.104a3.825 3.825 0 0 0-.573-.523 4.725 4.725 0 0 0-1.157-3.74C17.623 1.619 15.775 1 13.214 1H7.001a1.892 1.892 0 0 0-1.864 1.592l-2.59 16.406a1.533 1.533 0 0 0 1.516 1.785h2.664l-.082.52A1.467 1.467 0 0 0 8.093 23h3.235a1.761 1.761 0 0 0 1.75-1.47l.641-4.031.011-.055h.299c4.032 0 6.55-1.993 7.285-5.762a5.149 5.149 0 0 0-.877-4.578Zm-12.595 6.6-.714 4.535-.086.544H4.606L7.097 3h6.117c1.936 0 3.318.404 3.993 1.164a2.967 2.967 0 0 1 .607 2.733l-.018.113c-.012.076-.023.15-.043.246a5.846 5.846 0 0 1-2.006 3.67 6.678 6.678 0 0 1-4.217 1.183H9.707a1.88 1.88 0 0 0-1.865 1.595Zm11.51-2.405c-.552 2.828-2.243 4.145-5.323 4.145h-.483a1.761 1.761 0 0 0-1.752 1.473l-.649 4.074L8.717 21l.479-3.034.61-3.853h1.72c.157 0 .295-.023.448-.029a12.21 12.21 0 0 0 1.053-.067c.205-.026.393-.073.59-.11.273-.05.545-.1.801-.17.19-.053.368-.122.55-.186.239-.085.474-.174.697-.279a7 7 0 0 0 .486-.257 6.76 6.76 0 0 0 1.028-.713c.188-.162.368-.336.537-.519.113-.12.228-.237.333-.367a7.09 7.09 0 0 0 .48-.693c.076-.122.161-.235.232-.363.202-.371.376-.757.52-1.154.01-.024.021-.044.03-.068.004-.01.01-.02.014-.032a4.3 4.3 0 0 1 .026 2.193Z"/>
</svg>
