<svg xmlns="http://www.w3.org/2000/svg" width="24" height="24" fill="currentColor" viewBox="0 0 24 24">
  <path d="m14.975 3.019.96-1.732a.192.192 0 0 0-.075-.263.193.193 0 0 0-.263.076l-.97 1.75a6.541 6.541 0 0 0-5.253 0l-.97-1.75a.193.193 0 0 0-.34.187l.96 1.732a5.546 5.546 0 0 0-3.092 4.876h12.136a5.546 5.546 0 0 0-3.093-4.876ZM9.2 5.675a.507.507 0 1 1 0-1.014.507.507 0 0 1 0 1.014Zm5.602 0a.507.507 0 1 1 0-1.014.507.507 0 0 1 0 1.014ZM5.93 17.172a1.467 1.467 0 0 0 1.47 1.467h.973v3a1.36 1.36 0 1 0 2.721 0v-3h1.814v3a1.361 1.361 0 1 0 2.72 0v-3h.975a1.467 1.467 0 0 0 1.467-1.467V8.375H5.93v8.797Zm-1.867-9.03a1.362 1.362 0 0 0-1.36 1.36v5.669a1.36 1.36 0 1 0 2.72 0V9.502a1.362 1.362 0 0 0-1.36-1.36Zm15.872 0a1.362 1.362 0 0 0-1.36 1.36v5.669a1.359 1.359 0 0 0 1.881 1.26 1.36 1.36 0 0 0 .84-1.26V9.502a1.362 1.362 0 0 0-1.361-1.36Z"/>
</svg>
