<svg xmlns="http://www.w3.org/2000/svg" width="24" height="24" fill="currentColor" viewBox="0 0 24 24">
  <path d="M21.951 15.614a4.725 4.725 0 0 1-2.981-2.173 1 1 0 0 0-1.656 1.121 7.688 7.688 0 0 0 2.402 2.335c-.135.025-.281.05-.442.075a1.367 1.367 0 0 0-1.076 1.207 6.06 6.06 0 0 0-2.014-.004 4.64 4.64 0 0 0-1.958.956 3.484 3.484 0 0 1-2.104.87h-.26a3.485 3.485 0 0 1-2.106-.872 4.627 4.627 0 0 0-1.929-.95 6.39 6.39 0 0 0-2.04.005 1.368 1.368 0 0 0-1.062-1.21 12.693 12.693 0 0 1-.435-.075c.68-.393 1.287-.9 1.795-1.499.234-.272.447-.562.635-.868a1 1 0 0 0-1.696-1.06 4.91 4.91 0 0 1-.448.616 4.252 4.252 0 0 1-2.552 1.528A1.224 1.224 0 0 0 .99 16.852c0 .183.04.365.115.533.316.716 1.156 1.168 2.785 1.474l.03.13c.03.118.059.238.093.348a1.289 1.289 0 0 0 1.278.945 2.56 2.56 0 0 0 .603-.087 4.67 4.67 0 0 1 1.588-.046c.415.123.798.334 1.123.618a5.413 5.413 0 0 0 3.255 1.235h.261a5.445 5.445 0 0 0 3.274-1.248 2.917 2.917 0 0 1 1.131-.61 3.48 3.48 0 0 1 .624-.052c.322 0 .642.035.956.106.203.038.408.06.615.064a1.256 1.256 0 0 0 1.245-.923c.038-.122.067-.24.095-.355l.03-.124c1.625-.305 2.468-.754 2.768-1.44a1.17 1.17 0 0 0 .127-.48 1.245 1.245 0 0 0-1.036-1.326Zm-18.15-4.466a1.004 1.004 0 0 0 1.057-.484c.397.202.83.317 1.275.338.47.006.925-.173 1.265-.5a1 1 0 0 0 .317-.79l-.036-.6a9.902 9.902 0 0 1 .156-3.562 4.26 4.26 0 0 1 3.966-2.544l.388-.004a4.264 4.264 0 0 1 3.96 2.547 9.919 9.919 0 0 1 .156 3.564l-.01.163-.027.444a1.028 1.028 0 0 0 .312.778c.337.325.787.505 1.254.503a3.271 3.271 0 0 0 1.241-.365 1.001 1.001 0 0 0 .916.598h.018a1 1 0 0 0 .982-1.017 1.641 1.641 0 0 0-1.185-1.451 1.914 1.914 0 0 0-1.477.01 9.47 9.47 0 0 0-.354-4.042 6.236 6.236 0 0 0-5.796-3.732l-.393.004a6.222 6.222 0 0 0-5.777 3.73 9.586 9.586 0 0 0-.352 4.094l-.111-.052a1.909 1.909 0 0 0-2.537 1.199 1.002 1.002 0 0 0 .793 1.171Z"/>
</svg>
