<svg xmlns="http://www.w3.org/2000/svg" width="24" height="24" fill="currentColor" viewBox="0 0 24 24">
  <path d="M14.478 14.883a4.06 4.06 0 0 1-2.187-.398 1.438 1.438 0 0 1-.536-1.01.221.221 0 0 0-.226-.22 46.977 46.977 0 0 0-.95 0 .212.212 0 0 0-.231.186 2.34 2.34 0 0 0 .753 1.844c.64.5 1.417.792 2.228.839.845.098 1.7.061 2.533-.108a3.127 3.127 0 0 0 1.678-.904 2.34 2.34 0 0 0 .396-2.231 1.869 1.869 0 0 0-1.23-1.095c-1.28-.45-2.665-.415-3.97-.757-.227-.07-.504-.148-.605-.388a.854.854 0 0 1 .284-.955 2.57 2.57 0 0 1 1.35-.336 4.07 4.07 0 0 1 1.883.27 1.436 1.436 0 0 1 .687.992.244.244 0 0 0 .228.236c.314.006.628.001.943.002a.227.227 0 0 0 .247-.168 2.433 2.433 0 0 0-1.187-2.106 5.88 5.88 0 0 0-3.218-.493 3.506 3.506 0 0 0-2.176.875 2.174 2.174 0 0 0-.434 2.262 1.928 1.928 0 0 0 1.218 1.062c1.277.461 2.676.313 3.965.721.25.085.543.216.62.495a.991.991 0 0 1-.27.946 2.97 2.97 0 0 1-1.793.439Zm5.819-8.445c-2.492-1.41-4.985-2.818-7.479-4.225a1.678 1.678 0 0 0-1.637 0L3.73 6.421a1.542 1.542 0 0 0-.805 1.342v8.475a1.553 1.553 0 0 0 .836 1.355c.713.388 1.406.816 2.133 1.178a3.062 3.062 0 0 0 2.738.076 2.128 2.128 0 0 0 .995-1.921c.005-2.797 0-5.594.002-8.39a.22.22 0 0 0-.207-.255 41.555 41.555 0 0 0-.953 0 .21.21 0 0 0-.228.213c-.004 2.779.001 5.558-.002 8.337a.94.94 0 0 1-.61.884 1.532 1.532 0 0 1-1.24-.166l-1.982-1.12a.237.237 0 0 1-.135-.235V7.807a.259.259 0 0 1 .157-.26c2.476-1.395 4.95-2.79 7.425-4.187a.258.258 0 0 1 .292 0l7.426 4.185a.262.262 0 0 1 .156.262v8.387a.242.242 0 0 1-.134.238 4852.716 4852.716 0 0 1-7.317 4.13c-.116.064-.254.169-.39.09-.64-.362-1.27-.738-1.908-1.103a.206.206 0 0 0-.23-.014c-.28.165-.575.303-.882.412-.138.056-.308.072-.403.2.122.132.268.237.432.31.745.432 1.49.863 2.236 1.293a1.63 1.63 0 0 0 1.655.046c2.484-1.4 4.968-2.802 7.452-4.204a1.555 1.555 0 0 0 .836-1.354V7.763a1.54 1.54 0 0 0-.778-1.325Z"/>
</svg>
