<svg xmlns="http://www.w3.org/2000/svg" width="24" height="24" fill="currentColor" viewBox="0 0 24 24">
  <path d="M7 15.14c.032.155.09.304.17.44a6.28 6.28 0 0 0 1.39 2.08 6.669 6.669 0 0 0 2.09 1.4c.8.35 1.666.527 2.54.52a6.289 6.289 0 0 0 2.55-.52 6.628 6.628 0 0 0 2.08-1.4 6.39 6.39 0 0 0 1.41-2.08c.326-.82.482-1.698.46-2.58a6.758 6.758 0 0 0-.51-2.56 6.349 6.349 0 0 0-1.41-2.07A6.46 6.46 0 0 0 10.56 7a7.092 7.092 0 0 0-1.2.68 7.14 7.14 0 0 0-1.14.94V3.23h9.05c.22 0 .34-.21.34-.62 0-.41-.13-.61-.35-.61H7.47a.37.37 0 0 0-.3.13.4.4 0 0 0-.12.29V10a.39.39 0 0 0 .17.3c.123.088.262.149.41.18.14.043.29.043.43 0a.922.922 0 0 0 .24-.11.953.953 0 0 0 .14-.17c.254-.36.542-.695.86-1a5.15 5.15 0 0 1 3.79-1.56 5.15 5.15 0 0 1 3.81 1.61A5.17 5.17 0 0 1 18.48 13a5.309 5.309 0 0 1-.41 2 5.358 5.358 0 0 1-2.9 3 5.402 5.402 0 0 1-2.06.4 5.091 5.091 0 0 1-2.7-.75V13a2.66 2.66 0 0 1 .71-1.79 2.53 2.53 0 0 1 2-.89 2.65 2.65 0 0 1 2 .79 2.55 2.55 0 0 1 .75 1.89 2.73 2.73 0 0 1-2.77 2.74h-.34l-.37-.07h-.15c-.21-.06-.37.1-.49.48s-.07.6.14.68c.406.12.827.181 1.25.18a3.841 3.841 0 0 0 2.8-1.16A3.81 3.81 0 0 0 17.1 13a3.73 3.73 0 0 0-1.16-2.78 3.8 3.8 0 0 0-2.8-1.15 3.86 3.86 0 0 0-2.82 1.15 3.57 3.57 0 0 0-1.14 2.59v3.8a5.631 5.631 0 0 1-1.08-1.86c-.08-.21-.3-.25-.67-.13-.37.12-.55.29-.48.49l.05.03Zm6.25-11a8.16 8.16 0 0 0-3.34.64.25.25 0 0 0-.23.22c.005.147.035.293.09.43.14.35.3.48.5.41a8.09 8.09 0 0 1 2.93-.55 7.54 7.54 0 0 1 3.08.63 8.668 8.668 0 0 1 2.31 1.48.251.251 0 0 0 .18.08c.09 0 .24-.1.43-.29l.19-.19a.37.37 0 0 0 .06-.21.3.3 0 0 0-.1-.2 8.62 8.62 0 0 0-2.62-1.69 9 9 0 0 0-3.53-.76h.05Zm-1.61 9.91a.46.46 0 0 0 .2.33.52.52 0 0 0 .35.18.24.24 0 0 0 .17-.06l.73-.73.7.68a.281.281 0 0 0 .21.11.58.58 0 0 0 .36-.19c.2-.21.23-.39.07-.55l-.7-.7.74-.74c.12-.12.08-.29-.13-.49-.21-.2-.4-.27-.53-.14l-.73.72-.72-.74a.3.3 0 0 0-.15-.05.56.56 0 0 0-.34.2c-.23.22-.28.38-.16.5l.74.74-.74.72a.35.35 0 0 0-.12.21h.05Zm7.93 4.57a1.237 1.237 0 0 0-.37-.25.28.28 0 0 0-.28.07l-.07.07a8.001 8.001 0 0 1-2.51 1.69 7.94 7.94 0 0 1-8.68-1.69A7.48 7.48 0 0 1 5.91 16a9.334 9.334 0 0 1-.51-1.77c0-.21-.25-.29-.63-.23-.38.06-.56.2-.53.4.108.726.31 1.435.6 2.11a8.84 8.84 0 0 0 2 2.88 8.998 8.998 0 0 0 2.89 2 9.13 9.13 0 0 0 3.54.71 9.28 9.28 0 0 0 3.54-.71 8.997 8.997 0 0 0 2.89-2l.06-.06c.09-.22.02-.44-.24-.71h.05Z"/>
</svg>
