<svg xmlns="http://www.w3.org/2000/svg" width="24" height="24" fill="currentColor" viewBox="0 0 24 24">
  <path d="M22 6.55a12.596 12.596 0 0 0-.1-1.29 4.291 4.291 0 0 0-.37-1.08 3.66 3.66 0 0 0-.71-1 3.91 3.91 0 0 0-1-.71 4.28 4.28 0 0 0-1.08-.36c-.424-.063-.851-.1-1.28-.11H6.55a12.61 12.61 0 0 0-1.29.1 4.29 4.29 0 0 0-1.08.37 3.66 3.66 0 0 0-1 .71 3.91 3.91 0 0 0-.71 1 4.28 4.28 0 0 0-.36 1.08c-.063.424-.1.851-.11 1.28v10.91c.011.431.045.862.1 1.29.075.375.2.738.37 1.08.179.37.419.709.71 1a3.91 3.91 0 0 0 1 .71 4.28 4.28 0 0 0 1.08.36c.424.063.851.1 1.28.11h10.91c.431-.011.862-.045 1.29-.1a4.29 4.29 0 0 0 1.08-.37 3.66 3.66 0 0 0 1-.71 3.91 3.91 0 0 0 .71-1 4.28 4.28 0 0 0 .36-1.08c.063-.424.1-.851.11-1.28V6.55ZM12.23 19a7.12 7.12 0 0 1-3.43-.9l-3.8 1 1-3.72a7.11 7.11 0 0 1-1-3.58 7.18 7.18 0 1 1 7.23 7.2Zm0-13.13A6 6 0 0 0 7.18 15l.14.23-.6 2.19L9 16.8l.22.13a6 6 0 0 0 3 .83 6 6 0 1 0 0-12l.01.11Zm3.5 8.52a1.82 1.82 0 0 1-1.21.85 2.33 2.33 0 0 1-1.12-.07 8.896 8.896 0 0 1-1-.38 8 8 0 0 1-3.06-2.7 3.48 3.48 0 0 1-.73-1.85 2 2 0 0 1 .63-1.5.65.65 0 0 1 .48-.22H10c.11 0 .26 0 .4.31s.51 1.24.56 1.33a.34.34 0 0 1 0 .31c-.044.109-.105.21-.18.3-.09.11-.19.24-.27.32-.08.08-.18.18-.08.36.272.46.609.877 1 1.24a5 5 0 0 0 1.44.89c.18.09.29.08.39 0 .1-.08.45-.52.57-.7.12-.18.24-.15.4-.09.16.06 1.05.49 1.23.58.18.09.29.13.34.21.043.262.02.53-.07.78v.03Z"/>
</svg>
