<svg xmlns="http://www.w3.org/2000/svg" width="24" height="24" fill="currentColor" viewBox="0 0 24 24">
  <path d="M12.878 5.928a.297.297 0 0 1 .314.335l.003.276c.001.593-.002 1.185.002 1.777.004.434.08.517.5.57 1.048.096 2.103.08 3.148-.046a4.949 4.949 0 0 0 1.573-.374.507.507 0 0 0 .344-.603 6.832 6.832 0 0 0-5.343-5.71 6.608 6.608 0 0 0-3.648.242 6.718 6.718 0 0 0-2.694 1.752A6.272 6.272 0 0 0 5.23 8.432c.022 1.94.547 3.842 1.526 5.518a1.342 1.342 0 0 0 1.33.747c.653-.016 1.307-.004 1.96-.004v-.003h2.084c.25 0 .447.06.445.372-.005.726 0 1.45-.003 2.176-.002.22-.064.432-.326.434-.264.002-.327-.209-.33-.43-.005-.347 0-.694 0-1.041 0-.451-.073-.557-.523-.64a7.703 7.703 0 0 0-2.348-.019 2.597 2.597 0 0 0-.8.195c-.212.1-.296.245-.193.467.107.231.206.467.333.688a43.895 43.895 0 0 0 3.426 4.956c.154.199.273.203.431.01.349-.426.715-.838 1.06-1.268a34.223 34.223 0 0 0 3.577-5.26 14.17 14.17 0 0 0 1.494-3.871 1.202 1.202 0 0 0-1.012-1.635 6.944 6.944 0 0 0-1.67-.162c-.909-.006-1.818-.003-2.727-.002-.245 0-.427-.07-.427-.358 0-1.01-.002-2.022.002-3.033 0-.216.104-.349.339-.34Z"/>
</svg>
