<svg xmlns="http://www.w3.org/2000/svg" width="24" height="24" fill="currentColor" viewBox="0 0 24 24">
  <path d="M22.867 3.374a1 1 0 0 0-.866-.502l-4.97-.004h-3.652a1.002 1.002 0 0 0-.817.425l-.56.796-.564-.798a.998.998 0 0 0-.815-.423H6.968l-4.973.027A1 1 0 0 0 1.137 4.4l10.02 17.106a1 1 0 0 0 .863.494 1 1 0 0 0 .864-.496l9.98-17.128a1.002 1.002 0 0 0 .003-1.002ZM10.104 4.868l1.086 1.533a.999.999 0 0 0 .816.423h.001a1.002 1.002 0 0 0 .817-.425L13.9 4.87l1.363-.002-3.244 5.454-3.275-5.454 1.361.001Zm1.913 14.15L3.74 4.885l2.67-.015 4.754 7.918a1 1 0 0 0 .857.486h.006a1 1 0 0 0 .857-.49l4.708-7.916 2.67.003-8.244 14.147Z"/>
</svg>
