<svg xmlns="http://www.w3.org/2000/svg" width="24" height="24" fill="currentColor" viewBox="0 0 24 24">
  <path d="M12 12a3 3 0 1 0 0 5.999A3 3 0 0 0 12 12Zm0 4a1 1 0 1 1 0-2 1 1 0 0 1 0 2Zm-.71-6.29a1 1 0 0 0 .33.21.94.94 0 0 0 .76 0 1 1 0 0 0 .33-.21L15 7.46A1.032 1.032 0 1 0 13.54 6l-.54.59V3a1 1 0 0 0-2 0v3.59L10.46 6A1.032 1.032 0 1 0 9 7.46l2.29 2.25ZM19 15a1 1 0 1 0-2 0 1 1 0 0 0 2 0Zm1-7h-3a1 1 0 1 0 0 2h3a1 1 0 0 1 1 1v8a1 1 0 0 1-1 1H4a1 1 0 0 1-1-1v-8a1 1 0 0 1 1-1h3a1 1 0 0 0 0-2H4a3 3 0 0 0-3 3v8a3 3 0 0 0 3 3h16a3 3 0 0 0 3-3v-8a3 3 0 0 0-3-3ZM5 15a1 1 0 1 0 2 0 1 1 0 0 0-2 0Z"/>
</svg>
