<svg xmlns="http://www.w3.org/2000/svg" width="24" height="24" fill="currentColor" viewBox="0 0 24 24">
  <path d="M8.5 5.94a7.1 7.1 0 0 1 7 0 1 1 0 1 0 1-1.73 9.14 9.14 0 0 0-9 0 1 1 0 1 0 1 1.73Zm9.92 5.27a5.91 5.91 0 0 0-.36-.71 1 1 0 0 0-1.71 1.04c.155.267.282.548.38.84a1 1 0 0 0 .78.67A3 3 0 0 1 20 16a3 3 0 0 1-3 3H5.66A2 2 0 0 1 4 17.4 2 2 0 0 1 6 15a1 1 0 0 0 1-1 4.92 4.92 0 0 1 .67-2.49 1 1 0 1 0-1.73-1 6.75 6.75 0 0 0-.88 2.6 4 4 0 0 0-2.13 1.33A4 4 0 0 0 5.46 21H17a5 5 0 0 0 1.42-9.79ZM14.87 9v-.06a.922.922 0 0 0 .13-.2 1 1 0 0 0-.57-1.29 6.36 6.36 0 0 0-1.74-.38h-.3a5.47 5.47 0 0 0-.81 0 2.996 2.996 0 0 0-.31 0 6.36 6.36 0 0 0-1.74.38A1 1 0 0 0 9 8.74c.034.067.074.13.12.19a.61.61 0 0 0 0 .11 1 1 0 0 0 1.37.36 3.08 3.08 0 0 1 3 0 1 1 0 0 0 1.38-.4ZM11 12a1 1 0 1 0 2 0 1 1 0 0 0-2 0Z"/>
</svg>
