<svg xmlns="http://www.w3.org/2000/svg" width="24" height="24" fill="currentColor" viewBox="0 0 24 24">
  <path d="M14 15.5h-3v-1a1 1 0 0 1 1.88-.5 1 1 0 0 0 1.37.34 1 1 0 0 0 .34-1.34 3.084 3.084 0 0 0-.46-.59A3 3 0 0 0 12 11.5a3 3 0 0 0-3 3v1.18a3 3 0 0 0 1 5.82h4a3 3 0 0 0 0-6Zm0 4h-4a1 1 0 1 1 0-2h4a1 1 0 0 1 0 2Zm4.42-12.78A7 7 0 0 0 5.06 8.61a4 4 0 0 0-.38 7.66c.104.032.212.049.32.05a1.013 1.013 0 1 0 .32-2A2 2 0 0 1 4 12.5a2 2 0 0 1 2-2 1 1 0 0 0 1-1 5 5 0 0 1 9.73-1.61 1 1 0 0 0 .78.67 3 3 0 0 1 1 5.53 1.004 1.004 0 0 0 1 1.74A5 5 0 0 0 22 11.5a5 5 0 0 0-3.58-4.78Z"/>
</svg>
