<svg xmlns="http://www.w3.org/2000/svg" width="24" height="24" fill="currentColor" viewBox="0 0 24 24">
  <path d="M14.5 15a2 2 0 1 0-2-2l-1.9.87a2 2 0 1 0-1.1 3.67c.322 0 .639-.082.92-.24l2.1 1a2 2 0 1 0 .8-1.84l-1.75-.8 1.91-.88a2 2 0 0 0 1.02.22Zm3.92-7.78A7 7 0 0 0 5.06 9.11a4 4 0 0 0-.38 7.66c.104.032.212.049.32.05a1.013 1.013 0 1 0 .32-2A2 2 0 0 1 4 13a2 2 0 0 1 2-2 1 1 0 0 0 1-1 5 5 0 0 1 9.73-1.61 1 1 0 0 0 .78.67 3 3 0 0 1 1 5.53 1.004 1.004 0 0 0 1 1.74A5 5 0 0 0 22 12a5 5 0 0 0-3.58-4.78Z"/>
</svg>
