<svg xmlns="http://www.w3.org/2000/svg" width="24" height="24" fill="currentColor" viewBox="0 0 24 24">
  <path d="M18.42 8.22a7 7 0 0 0-13.36 1.89A4 4 0 0 0 6 18h2a1 1 0 1 0 0-2H6a2 2 0 1 1 0-4 1 1 0 0 0 1-1 5 5 0 0 1 9.73-1.61 1 1 0 0 0 .78.67A3 3 0 0 1 20 13a3 3 0 0 1-3 3 1 1 0 0 0 0 2 5 5 0 0 0 1.42-9.78Zm-5.5 10.4a.561.561 0 0 0-.09-.17l-.12-.16a1.152 1.152 0 0 0-.33-.21 1 1 0 0 0-1.09.21l-.12.16a.561.561 0 0 0-.09.17.643.643 0 0 0-.06.18 1.517 1.517 0 0 0 0 .2 1.23 1.23 0 0 0 0 .19c.01.066.03.13.06.19.02.062.05.119.09.17l.12.16c.192.183.445.286.71.29a1 1 0 0 0 .38-.08 1.15 1.15 0 0 0 .33-.21l.12-.16a.559.559 0 0 0 .09-.17c.03-.06.05-.124.06-.19.012-.063.018-.126.02-.19a1.483 1.483 0 0 0 0-.2.639.639 0 0 0-.08-.18ZM12 11a3 3 0 0 0-2.6 1.5 1 1 0 0 0 1.126 1.465 1 1 0 0 0 .604-.465A1 1 0 0 1 12 13a1 1 0 0 1 0 2 1 1 0 0 0 0 2 3 3 0 0 0 0-6Z"/>
</svg>
