<svg xmlns="http://www.w3.org/2000/svg" width="24" height="24" fill="currentColor" viewBox="0 0 24 24">
  <path d="m16.71 16.29-13-13a1.004 1.004 0 0 0-1.42 1.42l3.36 3.35a7 7 0 0 0-.59 2A4 4 0 0 0 6 18h9.59l2.7 2.71a.997.997 0 0 0 1.095.219.999.999 0 0 0 .325-.22 1 1 0 0 0 0-1.42l-3-3ZM6 16a2 2 0 0 1 0-4 1 1 0 0 0 1-1 5 5 0 0 1 .2-1.39L13.59 16H6Zm12.42-7.78A7 7 0 0 0 12 4a6.74 6.74 0 0 0-2.32.4 1 1 0 0 0 .66 1.88A4.91 4.91 0 0 1 12 6a5 5 0 0 1 4.73 3.39 1 1 0 0 0 .78.67 3 3 0 0 1 1.85 4.79 1 1 0 0 0 .78 1.62 1 1 0 0 0 .78-.38 5 5 0 0 0-2.5-7.87Z"/>
</svg>
