<svg xmlns="http://www.w3.org/2000/svg" width="24" height="24" fill="currentColor" viewBox="0 0 24 24">
  <path d="M21 13.5a1 1 0 0 0-1 1v4a1 1 0 0 1-1 1H5a1 1 0 0 1-1-1V8.91l5.88 5.88a3 3 0 0 0 4.24 0l3.59-3.58a1.004 1.004 0 1 0-1.42-1.42l-3.58 3.59a1.002 1.002 0 0 1-1.42 0L5.41 7.5H17a1 1 0 1 0 0-2H5a3 3 0 0 0-3 3v10a3 3 0 0 0 3 3h14a3 3 0 0 0 3-3v-4a1 1 0 0 0-1-1Zm0-9a1.05 1.05 0 0 0 .71-.29l.12-.16a.56.56 0 0 0 .09-.17.64.64 0 0 0 .08-.18 1.362 1.362 0 0 0 0-.2 1.05 1.05 0 0 0-.29-.71 1 1 0 0 0-1.639.325 1 1 0 0 0 .219 1.095c.192.183.445.286.71.29Zm0 1a1 1 0 0 0-1 1v4a1 1 0 0 0 2 0v-4a1 1 0 0 0-1-1Z"/>
</svg>
