<svg xmlns="http://www.w3.org/2000/svg" width="24" height="24" fill="currentColor" viewBox="0 0 24 24">
  <path d="M4.91 13.1a1 1 0 0 0 .85.47A1 1 0 0 0 6.61 12a17 17 0 0 1-2.47-6.85 1 1 0 0 1 .578-1.06A1 1 0 0 1 5.13 4h3a1 1 0 0 1 1 .8c0 .23.08.44.13.67v.13c.116.525.273 1.04.47 1.54l-1.39.66a1 1 0 0 0-.52.57 1 1 0 0 0 0 .77c.1.21.2.42.32.64a1 1 0 0 0 1.755-.028 1 1 0 0 0 .115-.542l.57-.21a2 2 0 0 0 1.05-2.48 9.316 9.316 0 0 1-.39-1.3v-.1c0-.2-.08-.4-.11-.58A3 3 0 0 0 8.16 2h-3a3 3 0 0 0-2.28 1 3 3 0 0 0-.72 2.39 19.05 19.05 0 0 0 2.75 7.71Zm14.61-.21-.6-.11h-.08a9.325 9.325 0 0 1-1.33-.39 2 2 0 0 0-2.47 1l-.21.46a12.392 12.392 0 0 1-1.92-1.37l8.8-8.79a1.004 1.004 0 1 0-1.42-1.42l-18 18a.999.999 0 0 0 0 1.42 1 1 0 0 0 1.42 0l4.59-4.6a19.09 19.09 0 0 0 10.29 4.73c.133.01.267.01.4 0a3 3 0 0 0 2-.75 3 3 0 0 0 1-2.25v-3a3 3 0 0 0-2.47-2.93Zm.48 6a.999.999 0 0 1-.718.96 1 1 0 0 1-.432.03 17.07 17.07 0 0 1-9.14-4.18l1.77-1.77a14.695 14.695 0 0 0 3.38 2.21 1 1 0 0 0 .77 0 1 1 0 0 0 .57-.52l.62-1.41c.522.194 1.056.35 1.6.47h.11l.69.13a1 1 0 0 1 .78 1v3.08Z"/>
</svg>
