<svg xmlns="http://www.w3.org/2000/svg" width="24" height="24" fill="currentColor" viewBox="0 0 24 24">
  <path d="M21 15.26a1 1 0 0 0-1 1v3a1 1 0 0 1-1 1H5a1 1 0 0 1-1-1V9.67l5.88 5.89a3 3 0 0 0 2.1.87 3 3 0 0 0 1.43-.36 1 1 0 0 0 .15-1.66 1 1 0 0 0-1.11-.1 1 1 0 0 1-1.15-.17L5.41 8.26H12a1 1 0 1 0 0-2H5a3 3 0 0 0-3 3v10a3 3 0 0 0 3 3h14a3 3 0 0 0 3-3v-3a1 1 0 0 0-1-1Zm0-12h-5a1 1 0 0 0-1 1v8a1 1 0 0 0 1.57.82l1.93-1.29 1.91 1.28c.173.12.379.187.59.19a1.001 1.001 0 0 0 1-1v-8a1 1 0 0 0-1-1Zm-1 7.12-.94-.63a1 1 0 0 0-1.12 0l-.94.63V5.26h3v5.12Z"/>
</svg>
