<svg xmlns="http://www.w3.org/2000/svg" width="24" height="24" fill="currentColor" viewBox="0 0 24 24">
  <path d="M4.79 10.5h-2a1 1 0 0 0 0 2h2a1 1 0 1 0 0-2Zm16.78-2.84V7.6a3 3 0 0 0-2.37-1.1h-7.93a3 3 0 0 0-2 .74A2.93 2.93 0 0 0 8.31 9l-.88 5a3 3 0 0 0 2.95 3.52h7.94a3 3 0 0 0 3-2.48l.88-5a3 3 0 0 0-.63-2.38Zm-2.74.84-3.4 2.76a1 1 0 0 1-1.38-.12L11.72 8.5h7.11Zm.48 6.17a1 1 0 0 1-1 .83h-7.93a1 1 0 0 1-.96-.74 1 1 0 0 1-.02-.43l.8-4.53 2.35 2.66a3 3 0 0 0 4.14.35L20.13 10l-.82 4.67ZM5.79 6.5h-3a1 1 0 0 0 0 2h3a1 1 0 0 0 0-2Z"/>
</svg>
