<svg xmlns="http://www.w3.org/2000/svg" width="24" height="24" fill="currentColor" viewBox="0 0 24 24">
  <path d="M20.5 13a1 1 0 0 0-1 1v4a1 1 0 0 1-1 1h-14a1 1 0 0 1-1-1V8.41l5.88 5.89a3 3 0 0 0 3.276.637c.37-.154.704-.381.984-.667l.89-.88a1 1 0 0 0-1.4-1.39l-.93.91a1 1 0 0 1-1.4 0L4.91 7H9.5a1 1 0 1 0 0-2h-5a3 3 0 0 0-3 3v10a3 3 0 0 0 3 3h14a3 3 0 0 0 3-3v-4a1 1 0 0 0-1-1Zm1.05-9a3.33 3.33 0 0 0-3.88-.54 3.25 3.25 0 0 0-3.88 5.13L17 11.71c.192.183.445.286.71.29a.998.998 0 0 0 .71-.29l3.17-3.17A3.26 3.26 0 0 0 21.55 4Zm-1.41 3.12-2.47 2.47-2.46-2.47A1.255 1.255 0 1 1 17 5.36a1 1 0 0 0 1.42 0 1.28 1.28 0 0 1 1.76 0 1.26 1.26 0 0 1-.04 1.76Z"/>
</svg>
