<svg xmlns="http://www.w3.org/2000/svg" width="24" height="24" fill="currentColor" viewBox="0 0 24 24">
  <path d="m8.29 6.21 2 2a1 1 0 0 0 1.639-.325 1 1 0 0 0-.219-1.095l-.3-.29H15a1 1 0 1 0 0-2h-3.59l.3-.29A1.005 1.005 0 0 0 11 2.496a1.004 1.004 0 0 0-.71.294l-2 2a1 1 0 0 0-.21.33 1 1 0 0 0 0 .76 1 1 0 0 0 .21.33ZM16 10.5H8a3 3 0 0 0-3 3v5a3 3 0 0 0 3 3h8a3 3 0 0 0 3-3v-5a3 3 0 0 0-3-3Zm-.42 2-2.88 2.88a1 1 0 0 1-1.4 0L8.42 12.5h7.16Zm1.42 6a1 1 0 0 1-1 1H8a1 1 0 0 1-1-1v-4.59l2.88 2.87a2.94 2.94 0 0 0 2.12.89 3 3 0 0 0 2.12-.88L17 13.91v4.59Z"/>
</svg>
