<svg xmlns="http://www.w3.org/2000/svg" width="24" height="24" fill="currentColor" viewBox="0 0 24 24">
  <path d="M20 13.17V13a8 8 0 0 0-2.42-5.74 7.84 7.84 0 0 0-3.18-1.88h-.05A8.24 8.24 0 0 0 11.76 5 8.21 8.21 0 0 0 4 13.17 3 3 0 0 0 5 19h14a3 3 0 0 0 1-5.83ZM19 17H5a1 1 0 0 1 0-2h2a1 1 0 0 0 0-2H6a6.41 6.41 0 0 1 3-5.15V11a1 1 0 1 0 2 0V7.09a7.34 7.34 0 0 1 .82-.09H12c.336.003.67.037 1 .1V11a1 1 0 0 0 2 0V7.82c.424.246.82.537 1.18.87A5.999 5.999 0 0 1 18 13h-1a1 1 0 0 0 0 2h2a1 1 0 0 1 0 2Z"/>
</svg>
