<svg xmlns="http://www.w3.org/2000/svg" width="24" height="24" fill="currentColor" viewBox="0 0 24 24">
  <path d="M8 18.5a1 1 0 1 0 0 2 1 1 0 0 0 0-2Zm0-8a1 1 0 1 0 0 2 1 1 0 0 0 0-2Zm4 8a1 1 0 1 0 0 2 1 1 0 0 0 0-2Zm-8-12a1 1 0 1 0 0 2 1 1 0 0 0 0-2Zm0 12a1 1 0 1 0 0 2 1 1 0 0 0 0-2Zm0-14h16a1 1 0 1 0 0-2H4a1 1 0 0 0 0 2Zm0 10a1 1 0 1 0 0 2 1 1 0 0 0 0-2Zm0-4a1 1 0 1 0 0 2 1 1 0 0 0 0-2Zm8-4a1 1 0 1 0 0 2 1 1 0 0 0 0-2Zm8 8a1 1 0 1 0 0 2 1 1 0 0 0 0-2Zm0 4a1 1 0 1 0 0 2 1 1 0 0 0 0-2Zm-8-4a1 1 0 1 0 0 2 1 1 0 0 0 0-2Zm8-8a1 1 0 1 0 0 2 1 1 0 0 0 0-2Zm0 4a1 1 0 1 0 0 2 1 1 0 0 0 0-2Zm-8 0a1 1 0 1 0 0 2 1 1 0 0 0 0-2Zm4 0a1 1 0 1 0 0 2 1 1 0 0 0 0-2Zm0 8a1 1 0 1 0 0 2 1 1 0 0 0 0-2Z"/>
</svg>
