<svg xmlns="http://www.w3.org/2000/svg" width="24" height="24" fill="currentColor" viewBox="0 0 24 24">
  <path d="M8 5a1 1 0 1 0 0-2 1 1 0 0 0 0 2ZM4 9a1 1 0 1 0 0-2 1 1 0 0 0 0 2Zm0-4a1 1 0 1 0 0-2 1 1 0 0 0 0 2Zm0 14a1 1 0 1 0 0 2 1 1 0 0 0 0-2ZM20 5a1 1 0 1 0 0-2 1 1 0 0 0 0 2Zm0 4a1 1 0 1 0 0-2 1 1 0 0 0 0 2Zm-4-4a1 1 0 1 0 0-2 1 1 0 0 0 0 2Zm4 14a1 1 0 1 0 0 2 1 1 0 0 0 0-2ZM4 15a1 1 0 1 0 0 2.001A1 1 0 0 0 4 15Zm16 0a1 1 0 1 0 0 2.002A1 1 0 0 0 20 15Zm-4 4a1 1 0 1 0 0 2 1 1 0 0 0 0-2Zm5-7a1 1 0 0 0-1-1h-7V4a1 1 0 0 0-2 0v7H4a1 1 0 0 0 0 2h7v7a1 1 0 0 0 2 0v-7h7a1 1 0 0 0 1-1ZM8 19a1 1 0 1 0 0 2 1 1 0 0 0 0-2Z"/>
</svg>
