<svg xmlns="http://www.w3.org/2000/svg" width="24" height="24" fill="currentColor" viewBox="0 0 24 24">
  <path d="M6.29 9.71a1 1 0 0 0 1.42 0 1 1 0 0 0 0-1.42l-2-2a1 1 0 0 0-.33-.21 1 1 0 0 0-.76 0 1 1 0 0 0-.33.21l-2 2a1.004 1.004 0 0 0 1.42 1.42l.29-.3v5.18l-.29-.3a1.004 1.004 0 1 0-1.42 1.42l2 2a1 1 0 0 0 .33.21.94.94 0 0 0 .76 0 1 1 0 0 0 .33-.21l2-2a1.003 1.003 0 1 0-1.42-1.42l-.29.3V9.41l.29.3ZM11 8h10a1 1 0 1 0 0-2H11a1 1 0 1 0 0 2Zm10 3H11a1 1 0 0 0 0 2h10a1 1 0 0 0 0-2Zm0 5H11a1 1 0 0 0 0 2h10a1 1 0 0 0 0-2Z"/>
</svg>
