<svg xmlns="http://www.w3.org/2000/svg" width="24" height="24" fill="currentColor" viewBox="0 0 24 24">
  <path d="M15 2a7 7 0 0 0-6.88 5.74A6 6 0 0 0 5 12.41 5 5 0 1 0 11.59 19a6 6 0 0 0 4.67-3.09A7 7 0 0 0 15 2Zm-5 15.43c0 .1 0 .2-.07.31a3 3 0 1 1-3.64-3.64l.28-.1A2.938 2.938 0 0 1 10 17.43Zm5-3.67a1.77 1.77 0 0 1-.05.19 4 4 0 0 1-2.87 2.94c0-.18 0-.35-.06-.53-.06-.18 0-.27 0-.4s-.12-.38-.18-.57c-.06-.19-.07-.24-.12-.36a4.212 4.212 0 0 0-.3-.55c0-.09-.09-.19-.15-.28a5.307 5.307 0 0 0-.6-.73l-.2-.17a5.522 5.522 0 0 0-.53-.43 2.892 2.892 0 0 0-.34-.19 3.987 3.987 0 0 0-.5-.27 2.332 2.332 0 0 0-.4-.13 3.129 3.129 0 0 0-.52-.16c-.14 0-.29 0-.44-.06L7.13 12a4 4 0 0 1 2.92-2.87l.2-.05A3.74 3.74 0 0 1 11 9a4 4 0 0 1 4 4c-.001.255-.028.51-.08.76H15Zm2-.16V13a6 6 0 0 0-6-6h-.6a5 5 0 1 1 6.6 6.6Z"/>
</svg>
