<svg xmlns="http://www.w3.org/2000/svg" width="24" height="24" fill="currentColor" viewBox="0 0 24 24">
  <path d="M7.42 15.54a1 1 0 1 0 1.418 1.41 1 1 0 0 0-1.418-1.41Zm0-8.49a1 1 0 1 0 1.418 1.41A1 1 0 0 0 7.42 7.05Zm4.95 10a1 1 0 1 0 1 1 1 1 0 0 0-1-1.05v.05Zm-6-6a1 1 0 1 0 1 1 1 1 0 0 0-1-1.05v.05Zm6-6a1 1 0 1 0 1 1 1 1 0 0 0-1-1.05v.05Zm3.54 2.05a1 1 0 1 0 1.41 0 1 1 0 0 0-1.41-.05v.05Zm6.3 0a11 11 0 1 0-7.85 15.74 3.87 3.87 0 0 0 2.5-1.65 4.198 4.198 0 0 0 .61-3.19 5.65 5.65 0 0 1-.1-1 5 5 0 0 1 3-4.56 3.84 3.84 0 0 0 2.06-2.25 4 4 0 0 0-.22-3.11v.02Zm-1.7 2.44a1.899 1.899 0 0 1-1 1.09A7 7 0 0 0 15.37 17c.002.47.048.939.14 1.4a2.16 2.16 0 0 1-.31 1.65 1.79 1.79 0 0 1-1.21.8 9 9 0 0 1-10.62-9.13A9.05 9.05 0 0 1 11.85 3h.51a9 9 0 0 1 8.06 5 2 2 0 0 1 .09 1.52v.02ZM12.37 11a1 1 0 1 0 0 2.002 1 1 0 0 0 0-2.002Z"/>
</svg>
