<svg xmlns="http://www.w3.org/2000/svg" width="24" height="24" fill="currentColor" viewBox="0 0 24 24">
  <g clip-path="url(#a)">
    <path d="m22.71 21.29-1-1-6-6-6-6-6-6-1-1a1.004 1.004 0 0 0-1.42 1.42l.71.7V21a1 1 0 0 0 1 1h17.59l.7.71a1.002 1.002 0 0 0 1.639-.325 1 1 0 0 0-.219-1.095ZM4 5.41 6.59 8H4V5.41ZM8 20H4v-4h4v4Zm0-6H4v-4h4v4Zm2-2.59L12.59 14H10v-2.59ZM14 20h-4v-4h4v4Zm2 0v-2.59L18.59 20H16ZM8.67 4H14v5a1 1 0 0 0 1 1h5v5.33a1 1 0 0 0 2 0V3a1 1 0 0 0-1-1H8.67a1 1 0 0 0 0 2ZM16 4h4v4h-4V4Z"/>
  </g>
  <defs>
    <clipPath id="a">
      <path d="M0 0h24v24H0z"/>
    </clipPath>
  </defs>
</svg>
