<svg xmlns="http://www.w3.org/2000/svg" width="24" height="24" fill="currentColor" viewBox="0 0 24 24">
  <path d="M13.21 5.7a1 1 0 0 0 .24 0l1.94-.49a1 1 0 0 0-.48-1.94L13 3.73a1.007 1.007 0 0 0 .24 2l-.03-.03ZM9.51 9h-2a1 1 0 1 0 0 2h2a1 1 0 1 0 0-2Zm4 0a1 1 0 1 0 0 2h2a1 1 0 1 0 0-2h-2ZM7.39 7.15h.24l1.94-.48a1.014 1.014 0 0 0-.48-1.97l-1.94.48a1.007 1.007 0 1 0 .24 2v-.03ZM4 10.51a1 1 0 0 0 1-1v-2a1 1 0 0 0-2 0v2a1 1 0 0 0 1 1Zm16.62-8.3a1 1 0 0 0-.86-.21l-1 .24a1 1 0 0 0 .27 1.97A1 1 0 0 0 21 4V3a1 1 0 0 0-.38-.79ZM20 7a1 1 0 0 0-1 1v1.14a1 1 0 0 0 .51 1.86H20a1 1 0 0 0 1-1V8a1 1 0 0 0-1-1Zm0 6H4a1 1 0 0 0-1 1v3a1 1 0 0 0 .76 1l16 4c.08.01.16.01.24 0a1 1 0 0 0 1-1v-7a1 1 0 0 0-1-1Zm-1 6.72-14-3.5V15h14v4.72Z"/>
</svg>
