<svg xmlns="http://www.w3.org/2000/svg" width="24" height="24" fill="currentColor" viewBox="0 0 24 24">
  <path fill-rule="evenodd" d="M21.71 3.29a1 1 0 0 0-1.42 0l-2.665 2.665C15.937 4.695 14.005 4 12 4c-4.1 0-7.9 2.91-9.92 7.6a1 1 0 0 0 0 .8c.94 2.181 2.264 3.978 3.825 5.275L2.29 21.29a1 1 0 0 0 .325 1.639 1 1 0 0 0 1.095-.219l3.88-3.88a10.825 10.825 0 0 1-1.685-1.155l1.423-1.423a8.45 8.45 0 0 0 1.75 1.09l1.575-1.575A4 4 0 0 1 8.97 14.61l1.423-1.423a1.997 1.997 0 0 0 2.086.754l1.464-1.464a2.003 2.003 0 0 0-.754-2.086l1.423-1.423a3.999 3.999 0 0 1 1.156 1.684L17.71 8.71a9.729 9.729 0 0 0-1.518-1.322l1.433-1.433c.527.392 1.03.84 1.503 1.337L21.71 4.71a1 1 0 0 0 0-1.42Zm-5.518 4.098C14.906 6.492 13.473 6 12 6c-3.18 0-6.17 2.29-7.9 6 .827 1.774 1.942 3.223 3.228 4.252l1.641-1.641a4 4 0 0 1 5.642-5.642l1.58-1.58Zm-3.004 3.004a2 2 0 0 0-2.796 2.796l2.796-2.796Z" clip-rule="evenodd"/>
  <path d="M13.663 10.889a2 2 0 0 1 .28 1.589l1.824-1.825A3.999 3.999 0 0 0 14.61 8.97l-1.423 1.423c.185.136.346.304.475.497Zm5.465-3.597a11.867 11.867 0 0 0-1.503-1.337l-1.433 1.433A9.729 9.729 0 0 1 17.71 8.71l1.418-1.418ZM12 14a2 2 0 0 1-1.608-.812l-1.423 1.423a3.981 3.981 0 0 0 1.684 1.155l1.825-1.824A2.003 2.003 0 0 1 12 14Zm-2.922 3.342a8.482 8.482 0 0 1-1.75-1.09l-1.423 1.423c.536.446 1.1.832 1.685 1.155l1.488-1.488Z"/>
  <path fill-rule="evenodd" d="m18.183 9.248 1.424-1.423A14.934 14.934 0 0 1 21.92 11.6a1 1 0 0 1 0 .8C19.9 17.09 16.1 20 12 20a8.958 8.958 0 0 1-3.738-.83l1.539-1.54A6.82 6.82 0 0 0 12 18c3.18 0 6.17-2.29 7.9-6a12.884 12.884 0 0 0-1.717-2.752Zm-6.716 6.716a4 4 0 0 0 4.497-4.497l-4.497 4.497ZM21.917 3.59l.018.008a.98.98 0 0 0-.018-.008Z" clip-rule="evenodd"/>
</svg>
