<svg xmlns="http://www.w3.org/2000/svg" width="24" height="24" fill="currentColor" viewBox="0 0 24 24">
  <path d="M22 14.86v-.05a2.608 2.608 0 0 0-.1-.57l-1.64-9.73a3 3 0 0 0-3-2.51H6.69a3 3 0 0 0-2.95 2.51l-1.62 9.71a2.61 2.61 0 0 0-.1.57v.05C2 14.91 2 15 2 15v4a3 3 0 0 0 3 3h14a3 3 0 0 0 3-3v-4.14ZM5.71 4.83a1 1 0 0 1 1-.83h10.6a1 1 0 0 1 1 .83l1.2 7.22A2.638 2.638 0 0 0 19 12H5a2.635 2.635 0 0 0-.49.05l1.2-7.22ZM20 19a1 1 0 0 1-1 1H5a1 1 0 0 1-1-1v-3.92l.08-.46A1 1 0 0 1 5 14h14a1 1 0 0 1 .92.62l.08.46V19Zm-3-3a1 1 0 1 0 0 2 1 1 0 0 0 0-2Z"/>
</svg>
