<svg xmlns="http://www.w3.org/2000/svg" width="24" height="24" fill="currentColor" viewBox="0 0 24 24">
  <path d="M10 13a1 1 0 1 0 0 2 1 1 0 0 0 0-2Zm0-4a1 1 0 1 0 0 2 1 1 0 0 0 0-2Zm4 0a1 1 0 1 0 0 2 1 1 0 0 0 0-2Zm7 4a1 1 0 0 0 0-2h-2V9h2a1 1 0 1 0 0-2h-2.18A3 3 0 0 0 17 5.18V3a1 1 0 0 0-2 0v2h-2V3a1 1 0 0 0-2 0v2H9V3a1 1 0 0 0-2 0v2.18A3 3 0 0 0 5.18 7H3a1 1 0 0 0 0 2h2v2H3a1 1 0 0 0 0 2h2v2H3a1 1 0 0 0 0 2h2.18A3 3 0 0 0 7 18.82V21a1 1 0 1 0 2 0v-2h2v2a1 1 0 0 0 2 0v-2h2v2a1 1 0 0 0 2 0v-2.18A3 3 0 0 0 18.82 17H21a1 1 0 0 0 0-2h-2v-2h2Zm-4 3a1 1 0 0 1-1 1H8a1 1 0 0 1-1-1V8a1 1 0 0 1 1-1h8a1 1 0 0 1 1 1v8Zm-3-3a1 1 0 1 0 0 2 1 1 0 0 0 0-2Z"/>
</svg>
