<svg xmlns="http://www.w3.org/2000/svg" width="24" height="24" fill="currentColor" viewBox="0 0 24 24">
  <path d="M22 11a4 4 0 0 0-2-3.48A3.01 3.01 0 0 0 20 7a3 3 0 0 0-3-3h-.18A3 3 0 0 0 12 2.78 3 3 0 0 0 7.18 4H7a3 3 0 0 0-3 3 3 3 0 0 0 0 .52 4 4 0 0 0-.55 6.59A4 4 0 0 0 7 20h.18A3 3 0 0 0 12 21.22 3 3 0 0 0 16.82 20H17a4 4 0 0 0 3.5-5.89A3.999 3.999 0 0 0 22 11ZM11 8.55a4.721 4.721 0 0 0-.68-.32 1.002 1.002 0 0 0-.64 1.9A2 2 0 0 1 11 12v1.55a4.715 4.715 0 0 0-.68-.32 1.002 1.002 0 1 0-.64 1.9A2 2 0 0 1 11 17v2a1 1 0 0 1-1 1 1 1 0 0 1-.91-.6c.168-.098.328-.209.48-.33a1.002 1.002 0 0 0-1.28-1.54A2 2 0 0 1 5 16a2 2 0 0 1 .32-1.06c.224.04.452.06.68.06a1 1 0 0 0 0-2 1.84 1.84 0 0 1-.69-.13A2 2 0 0 1 5 9.25a3.1 3.1 0 0 0 .46.35 1.003 1.003 0 1 0 1-1.74.9.9 0 0 1-.34-.33A.92.92 0 0 1 6 7a1 1 0 0 1 1-1 .76.76 0 0 1 .21 0c.053.16.116.318.19.47a1 1 0 0 0 1.37.37 1 1 0 0 0 .36-1.34A1.06 1.06 0 0 1 9 5a1 1 0 0 1 2 0v3.55Zm7.69 4.32A1.84 1.84 0 0 1 18 13a1 1 0 0 0 0 2c.228 0 .456-.02.68-.06A2 2 0 0 1 19 16a2 2 0 0 1-3.29 1.53 1.001 1.001 0 0 0-1.28 1.54c.152.121.312.232.48.33a1 1 0 0 1-.91.6 1 1 0 0 1-1-1v-2a2 2 0 0 1 1.32-1.87 1.003 1.003 0 0 0-.64-1.9 4.715 4.715 0 0 0-.68.32V12a2 2 0 0 1 1.32-1.87 1.003 1.003 0 0 0-.64-1.9 4.721 4.721 0 0 0-.68.32V5a1 1 0 1 1 2 0 1.06 1.06 0 0 1-.13.5 1 1 0 1 0 1.73 1c.075-.162.138-.33.19-.5A.76.76 0 0 1 17 6a1 1 0 0 1 1 1 1 1 0 0 1-.17.55.9.9 0 0 1-.33.31 1.003 1.003 0 1 0 1 1.74c.18-.097.347-.215.5-.35a2 2 0 0 1-.27 3.62h-.04Z"/>
</svg>
