<svg xmlns="http://www.w3.org/2000/svg" width="24" height="24" fill="currentColor" viewBox="0 0 24 24">
  <path d="M8.42 12.21a1 1 0 0 0 .71.29 1 1 0 0 0 .71-.29l1.5-1.5a1.002 1.002 0 0 0 0-1.42l-1.5-1.5a1.004 1.004 0 1 0-1.42 1.42l.79.79-.79.79a1.001 1.001 0 0 0 0 1.42Zm5.94 2a3.76 3.76 0 0 1-4.72 0 1.001 1.001 0 0 0-1.28 1.54 5.68 5.68 0 0 0 7.28 0 1.001 1.001 0 0 0-1.28-1.54ZM15 9a1 1 0 1 0 0 2 1 1 0 0 0 0-2Zm-3-7a10 10 0 1 0 0 20 10 10 0 0 0 0-20Zm0 18a8 8 0 1 1 0-16.001A8 8 0 0 1 12 20Z"/>
</svg>
