<svg xmlns="http://www.w3.org/2000/svg" width="24" height="24" fill="currentColor" viewBox="0 0 24 24">
  <path d="M14.36 14.23a3.76 3.76 0 0 1-4.72 0 1.001 1.001 0 0 0-1.28 1.54 5.68 5.68 0 0 0 7.28 0 1.001 1.001 0 0 0-1.28-1.54Zm-5.15-3.69a1 1 0 0 0 1.41 0 1 1 0 0 0 0-1.41 3.08 3.08 0 0 0-4.24 0 1 1 0 1 0 1.41 1.41 1.001 1.001 0 0 1 1.42 0Zm8.41-1.41a3.08 3.08 0 0 0-4.24 0 1 1 0 0 0 1.41 1.41 1.002 1.002 0 0 1 1.42 0 1 1 0 0 0 1.41 0 1 1 0 0 0 0-1.41ZM12 2a10 10 0 1 0 0 20 10 10 0 0 0 0-20Zm0 18a8 8 0 1 1 0-16.001A8 8 0 0 1 12 20Z"/>
</svg>
