<svg xmlns="http://www.w3.org/2000/svg" width="24" height="24" fill="currentColor" viewBox="0 0 24 24">
  <path d="M15 11a1 1 0 1 0 0-2 1 1 0 0 0 0 2Zm-6 0a1 1 0 1 0 0-2 1 1 0 0 0 0 2Zm3-9a10 10 0 1 0 0 20 10 10 0 0 0 0-20Zm0 18a8 8 0 1 1 0-16.001A8 8 0 0 1 12 20Zm4.28-7.12a1 1 0 0 0-1.4-.16A2.78 2.78 0 0 0 14 14h-3.65a2.81 2.81 0 0 0-.88-1.31 1 1 0 0 0-1.36.2 1 1 0 0 0 .14 1.39 1 1 0 0 1 .25.72 1.09 1.09 0 0 1-.25.72 1.001 1.001 0 1 0 1.25 1.56c.39-.343.68-.786.84-1.28H14c.16.515.47.971.89 1.31a1 1 0 0 0 .57.18 1 1 0 0 0 .78-.38 1 1 0 0 0-.14-1.39 1 1 0 0 1-.25-.72 1.09 1.09 0 0 1 .25-.72 1 1 0 0 0 .18-1.4Z"/>
</svg>
