<svg xmlns="http://www.w3.org/2000/svg" width="24" height="24" fill="currentColor" viewBox="0 0 24 24">
  <path d="M9 11a1 1 0 1 0 0-2 1 1 0 0 0 0 2Zm6 0a1 1 0 1 0 0-2 1 1 0 0 0 0 2Zm.27 3.2a1 1 0 0 0-1.2 0l-.74.55-.73-.55a1 1 0 0 0-1.2 0l-.73.55-.74-.55a1 1 0 0 0-1.2 0l-1.33 1a1 1 0 0 0 1.2 1.6l.73-.55.74.55.12.06a.83.83 0 0 0 .22.08h.12c.083.01.167.01.25 0h.1a1.06 1.06 0 0 0 .34-.16l.73-.55.73.55a1 1 0 0 0 1 .11l.1-.05a.388.388 0 0 0 .11-.06l.74-.55.73.55a1 1 0 0 0 1.2-1.6l-1.29-.98ZM12 2a10 10 0 1 0 0 20 10 10 0 0 0 0-20Zm0 18a8 8 0 1 1 0-16.001A8 8 0 0 1 12 20Z"/>
</svg>
