<svg xmlns="http://www.w3.org/2000/svg" width="24" height="24" fill="currentColor" viewBox="0 0 24 24">
  <path d="m9 11.71.29-.3.29.3a1.001 1.001 0 0 0 1.639-.325A1 1 0 0 0 11 10.29l-.3-.29.3-.29a1.018 1.018 0 1 0-1.46-1.42l-.29.3-.25-.3a1.018 1.018 0 1 0-1.46 1.42l.3.29-.3.29a1.001 1.001 0 0 0 .325 1.639 1 1 0 0 0 1.095-.219H9Zm-.6 3.62a1 1 0 0 0 .173 1.646.998.998 0 0 0 1.107-.116 3.76 3.76 0 0 1 4.72 0 1.001 1.001 0 0 0 1.41-.13 1 1 0 0 0-.13-1.4 5.81 5.81 0 0 0-7.32 0h.04ZM12 2a10 10 0 1 0 0 20 10 10 0 0 0 0-20Zm0 18a8 8 0 1 1 0-16.001A8 8 0 0 1 12 20Zm5-11.71a1 1 0 0 0-1.42 0l-.29.3-.29-.3a1.004 1.004 0 0 0-1.42 1.42l.3.29-.3.29a1.002 1.002 0 0 0 .325 1.639A1 1 0 0 0 15 11.71l.29-.3.29.3a1.002 1.002 0 0 0 1.639-.325A1 1 0 0 0 17 10.29l-.3-.29.3-.29a1 1 0 0 0 0-1.42Z"/>
</svg>
