<svg xmlns="http://www.w3.org/2000/svg" width="24" height="24" fill="currentColor" viewBox="0 0 24 24">
  <path d="M8.36 15.33a1 1 0 0 0 .173 1.646.998.998 0 0 0 1.107-.116 3.76 3.76 0 0 1 4.72 0 1 1 0 0 0 .64.23 1 1 0 0 0 .64-1.76 5.81 5.81 0 0 0-7.28 0Zm.85-4.79a1 1 0 0 0 1.41 0 1 1 0 0 0 0-1.41 3.08 3.08 0 0 0-4.24 0 1 1 0 1 0 1.41 1.41 1.001 1.001 0 0 1 1.42 0ZM12 2a10 10 0 1 0 0 20 10 10 0 0 0 0-20Zm0 18a8 8 0 1 1 0-16.001A8 8 0 0 1 12 20Zm5.62-10.87a3.08 3.08 0 0 0-4.24 0 1 1 0 0 0 1.41 1.41 1.002 1.002 0 0 1 1.42 0 1 1 0 0 0 1.41 0 1 1 0 0 0 0-1.41Z"/>
</svg>
