<svg xmlns="http://www.w3.org/2000/svg" width="24" height="24" fill="currentColor" viewBox="0 0 24 24">
  <path d="M21.41 8.65v-.06a10 10 0 0 0-18.78-.06.85.85 0 0 0-.08.24 10 10 0 1 0 18.86-.12ZM12 4a8 8 0 0 1 6.92 4h-1.2a3 3 0 0 0-4.62.22A3.17 3.17 0 0 0 12 8a3.17 3.17 0 0 0-1.1.22A3 3 0 0 0 6.28 8h-1.2A8 8 0 0 1 12 4Zm4.5 6a1 1 0 1 1-2 0 1 1 0 0 1 2 0Zm-7 0a1 1 0 1 1-2 0 1 1 0 0 1 2 0ZM12 20a8 8 0 0 1-8-8 8.24 8.24 0 0 1 .26-2H5.5a3.001 3.001 0 0 0 6 .18 1 1 0 0 1 1 0 3.001 3.001 0 1 0 6-.18h1.24c.168.653.256 1.325.26 2a8 8 0 0 1-8 8Zm2.36-5.77a3.76 3.76 0 0 1-4.72 0 1.001 1.001 0 0 0-1.28 1.54 5.68 5.68 0 0 0 7.28 0 1.001 1.001 0 0 0-1.28-1.54Z"/>
</svg>
