<svg xmlns="http://www.w3.org/2000/svg" width="24" height="24" fill="currentColor" viewBox="0 0 24 24">
  <path d="M23 9.94a1.307 1.307 0 0 0-.06-.27v-.09a1.07 1.07 0 0 0-.19-.28l-6-6a1.071 1.071 0 0 0-.28-.19h-.09a.88.88 0 0 0-.33-.11H8a3 3 0 0 0-3 3v1H4a3 3 0 0 0-3 3v8a3 3 0 0 0 3 3h12a3 3 0 0 0 3-3v-1h1a3 3 0 0 0 3-3V9.94Zm-6-3.53L19.59 9H18a1 1 0 0 1-1-1V6.41ZM17 18a1 1 0 0 1-1 1H4a1 1 0 0 1-1-1v-8a1 1 0 0 1 1-1h1v5a3 3 0 0 0 3 3h9v1Zm4-4a1 1 0 0 1-1 1H8a1 1 0 0 1-1-1V6a1 1 0 0 1 1-1h7v3a3 3 0 0 0 3 3h3v3Z"/>
</svg>
