<svg xmlns="http://www.w3.org/2000/svg" width="24" height="24" fill="currentColor" viewBox="0 0 24 24">
  <path d="M22 10.94a1.306 1.306 0 0 0-.06-.27v-.09a1.071 1.071 0 0 0-.19-.28l-6-6a1.071 1.071 0 0 0-.28-.19h-.1a1.099 1.099 0 0 0-.31-.11H5a3 3 0 0 0-3 3v10a3 3 0 0 0 3 3h14a3 3 0 0 0 3-3v-6.06Zm-6-3.53L18.59 10H17a1 1 0 0 1-1-1V7.41ZM20 17a1 1 0 0 1-1 1H5a1 1 0 0 1-1-1V7a1 1 0 0 1 1-1h9v3a3 3 0 0 0 3 3h3v5ZM7 12h4a1 1 0 0 0 0-2H7a1 1 0 0 0 0 2Zm0 2a1 1 0 0 0 0 2h10a1 1 0 0 0 0-2H7Z"/>
</svg>
