<svg xmlns="http://www.w3.org/2000/svg" width="24" height="24" fill="currentColor" viewBox="0 0 24 24">
  <path d="M15 16H9a1 1 0 0 0 0 2h6a1 1 0 0 0 0-2Zm-6-6h1a1 1 0 1 0 0-2H9a1 1 0 0 0 0 2Zm6 2H9a1 1 0 0 0 0 2h6a1 1 0 0 0 0-2Zm4.71 3.29a1 1 0 0 0-.33-.21.92.92 0 0 0-.76 0 1 1 0 0 0-.33.21 1.15 1.15 0 0 0-.21.33 1 1 0 0 0 .21 1.09A1 1 0 0 0 19 17c.13-.002.26-.029.38-.08a1.15 1.15 0 0 0 .33-.21.999.999 0 0 0 .21-1.09 1.15 1.15 0 0 0-.21-.33ZM20 8.94a1.307 1.307 0 0 0-.06-.27v-.09a1.07 1.07 0 0 0-.19-.28l-6-6a1.071 1.071 0 0 0-.28-.19.32.32 0 0 0-.09 0 .88.88 0 0 0-.33-.11H7a3 3 0 0 0-3 3v14a3 3 0 0 0 3 3h8a1 1 0 0 0 0-2H7a1 1 0 0 1-1-1V5a1 1 0 0 1 1-1h5v3a3 3 0 0 0 3 3h3v2a1 1 0 0 0 2 0V8.94ZM15 8a1 1 0 0 1-1-1V5.41L16.59 8H15Zm4 10a1 1 0 0 0-1 1v2a1 1 0 0 0 2 0v-2a1 1 0 0 0-1-1Z"/>
</svg>
