<svg xmlns="http://www.w3.org/2000/svg" width="24" height="24" fill="currentColor" viewBox="0 0 24 24">
  <path d="M12 10a1 1 0 0 0-1 1v2a1 1 0 0 0 2 0v-2a1 1 0 0 0-1-1Zm8.46-.32A8.5 8.5 0 0 0 7.3 3.36a8.56 8.56 0 0 0-3.76 6.27A8.46 8.46 0 0 0 6 16.46l5.3 5.31a1 1 0 0 0 1.42 0L18 16.46a8.46 8.46 0 0 0 2.46-6.83v.05Zm-3.86 5.37-4.6 4.6-4.6-4.6a6.49 6.49 0 0 1-1.87-5.22A6.57 6.57 0 0 1 8.42 5a6.47 6.47 0 0 1 7.16 0 6.57 6.57 0 0 1 2.89 4.81 6.49 6.49 0 0 1-1.87 5.24Zm-3.68-7.48a.56.56 0 0 0-.09-.17l-.12-.15A1 1 0 0 0 11.8 7h-.18l-.18.09-.15.13-.12.15a.56.56 0 0 0-.09.17.602.602 0 0 0-.06.19c-.017.089-.023.18-.02.27a.88.88 0 0 0 .08.39c.05.118.122.226.21.32.095.093.207.168.33.22.245.093.515.093.76 0a1.19 1.19 0 0 0 .33-.22 1.11 1.11 0 0 0 .21-.32A.986.986 0 0 0 13 8a1.23 1.23 0 0 0 0-.19.6.6 0 0 0-.08-.24Z"/>
</svg>
