<svg xmlns="http://www.w3.org/2000/svg" width="24" height="24" fill="currentColor" viewBox="0 0 24 24">
  <path d="M9 19c.13-.002.26-.029.38-.08a1.15 1.15 0 0 0 .33-.21 1 1 0 0 0 .12-.16.561.561 0 0 0 .09-.17.64.64 0 0 0 .08-.18 1.362 1.362 0 0 0 0-.2 1 1 0 0 0-.08-.38.9.9 0 0 0-.54-.54A1 1 0 0 0 8.8 17l-.18.06a.56.56 0 0 0-.17.09c-.057.035-.11.075-.16.12a1 1 0 0 0-.21.33A1 1 0 0 0 8 18a1 1 0 0 0 1 1Zm-3.71-.29c.097.088.209.16.33.21.12.051.25.078.38.08h.19c.066-.01.13-.03.19-.06a.762.762 0 0 0 .18-.09l.15-.12a1.15 1.15 0 0 0 .21-.33A.84.84 0 0 0 7 18a1.36 1.36 0 0 0 0-.2.64.64 0 0 0-.06-.18.561.561 0 0 0-.09-.17 1 1 0 0 0-.12-.16 1 1 0 0 0-1.09-.21 1 1 0 0 0-.33.21 1 1 0 0 0-.12.16.561.561 0 0 0-.09.17.64.64 0 0 0-.1.18 1.36 1.36 0 0 0 0 .2 1 1 0 0 0 .08.38c.05.121.122.233.21.33ZM19 2H5a3 3 0 0 0-3 3v14a3 3 0 0 0 3 3h14a3 3 0 0 0 3-3V5a3 3 0 0 0-3-3Zm1 17a1 1 0 0 1-1 1H5a1 1 0 0 1-1-1v-3h16v3Zm0-5H4v-4h4a1 1 0 0 0 .71-.29L10 8.46l2.8 3.2a.999.999 0 0 0 .72.34 1 1 0 0 0 .71-.29L15.91 10H20v4Zm0-6h-4.5a1 1 0 0 0-.71.29l-1.24 1.25-2.8-3.2a1 1 0 0 0-1.46 0L7.59 8H4V5a1 1 0 0 1 1-1h14a1 1 0 0 1 1 1v3Z"/>
</svg>
