<svg xmlns="http://www.w3.org/2000/svg" width="24" height="24" fill="currentColor" viewBox="0 0 24 24">
  <path d="M12 7.33a1 1 0 0 0 1-1v-.55l6-1.5v2.94L14.7 8.3a1.007 1.007 0 1 0 .24 2h.24L20.24 9h.07l.19-.09.15-.1a.935.935 0 0 0 .13-.15.784.784 0 0 0 .1-.15.554.554 0 0 0 .06-.18.65.65 0 0 0 0-.19A.24.24 0 0 0 21 8V3a1 1 0 0 0-1.24-1l-8 2A1 1 0 0 0 11 5v1.33a1 1 0 0 0 1 1Zm9.71 13-9-9-9-9a1 1 0 0 0-1.42 1.38l8.71 8.7v2.94a3.45 3.45 0 0 0-3.445.24A3.5 3.5 0 1 0 13 18.5v-4.09l7.29 7.3a1 1 0 0 0 1.42 0 1 1 0 0 0 0-1.42v.04ZM9.5 20a1.5 1.5 0 1 1 0-3 1.5 1.5 0 0 1 0 3Z"/>
</svg>
