<svg xmlns="http://www.w3.org/2000/svg" width="24" height="24" fill="currentColor" viewBox="0 0 24 24">
  <path d="M18 15V5a3 3 0 0 0-3-3H5a3 3 0 0 0-3 3v10a3 3 0 0 0 3 3h10a3 3 0 0 0 3-3ZM4 5a1 1 0 0 1 1-1h10a1 1 0 0 1 1 1v4.36l-1.08-1.09a2.56 2.56 0 0 0-3.62 0l-.91.91-.81-.81a2.93 2.93 0 0 0-4.11 0L4 9.85V5Zm.12 10.45A.94.94 0 0 1 4 15v-2.33l2.88-2.88a.91.91 0 0 1 1.29 0l.83.81-4.88 4.85Zm8.6-5.76a.52.52 0 0 1 .39-.17.52.52 0 0 1 .39.17l2.5 2.49V15a1 1 0 0 1-1 1H6.4l6.32-6.31ZM21 6a1 1 0 0 0-1 1v10a3 3 0 0 1-3 3H7a1 1 0 0 0 0 2h10a5 5 0 0 0 5-5V7a1 1 0 0 0-1-1Z"/>
</svg>
