<svg xmlns="http://www.w3.org/2000/svg" width="24" height="24" fill="currentColor" viewBox="0 0 24 24">
  <path d="M21 2h-6a1 1 0 1 0 0 2h5v5a1 1 0 0 0 2 0V3a1 1 0 0 0-1-1Zm0 12a1 1 0 0 0-1 1v5h-5a1 1 0 0 0 0 2h6a1 1 0 0 0 1-1v-6a1 1 0 0 0-1-1Zm-9-8a3 3 0 0 0-3 3v1a2 2 0 0 0-2 2v4a2 2 0 0 0 2 2h6a2 2 0 0 0 2-2v-4a2 2 0 0 0-2-2V9a3 3 0 0 0-3-3Zm-1 3a1 1 0 0 1 2 0v1h-2V9Zm4 7H9v-4h6v4ZM3 10a1 1 0 0 0 1-1V4h5a1 1 0 0 0 0-2H3a1 1 0 0 0-1 1v6a1 1 0 0 0 1 1Zm6 10H4v-5a1 1 0 1 0-2 0v6a1 1 0 0 0 1 1h6a1 1 0 0 0 0-2Z"/>
</svg>
