<svg xmlns="http://www.w3.org/2000/svg" width="24" height="24" fill="currentColor" viewBox="0 0 24 24">
  <path d="M21.84 5.56a4.08 4.08 0 0 0-1.14-2.25 4.08 4.08 0 0 0-2.25-1.14A14.45 14.45 0 0 0 2.16 18.44a4.08 4.08 0 0 0 1.14 2.25 4.08 4.08 0 0 0 2.25 1.14c.688.112 1.383.169 2.08.17a14.37 14.37 0 0 0 10.11-4.26 14.23 14.23 0 0 0 4.1-12.18ZM4.21 18.37a1.682 1.682 0 0 1-.07-.24A12.21 12.21 0 0 1 7.67 7.67 12.39 12.39 0 0 1 16.37 4a10.44 10.44 0 0 1 1.76.14c.082.017.162.04.24.07l-4.93 4.94-.73-.73a1 1 0 1 0-1.42 1.41l.73.73L10.56 12l-.73-.73a1 1 0 1 0-1.41 1.42l.73.73-4.94 4.95Zm12.12-2a12.239 12.239 0 0 1-10.46 3.49 1.683 1.683 0 0 1-.24-.07l4.93-4.94.73.73a1.001 1.001 0 0 0 1.42-1.41l-.71-.73L13.44 12l.73.73a1 1 0 0 0 1.41-1.42l-.73-.73 4.94-4.93c.03.078.053.158.07.24a12.21 12.21 0 0 1-3.53 10.44v.04Z"/>
</svg>
