<svg xmlns="http://www.w3.org/2000/svg" width="24" height="24" fill="currentColor" viewBox="0 0 24 24">
  <path d="M21 12.5a5.52 5.52 0 0 0-3.51-5.12 5.5 5.5 0 0 0-11 0A5.5 5.5 0 0 0 8.5 18h.2a6.91 6.91 0 0 1-1.24 2.39A1 1 0 0 0 8.24 22h7.52a1 1 0 0 0 .78-1.63A6.909 6.909 0 0 1 15.3 18h.2a5.51 5.51 0 0 0 5.5-5.5ZM10.06 20c.398-.807.671-1.67.81-2.56a5.47 5.47 0 0 0 1.13-.7c.347.278.726.514 1.13.7.139.89.412 1.753.81 2.56h-3.88Zm2.72-5.3-.08-.08-.08-.08h-.07l-.18-.09-.18-.06h-.38l-.18.06a.559.559 0 0 0-.17.09h-.08l-.08.08-.08.08a3.5 3.5 0 1 1-3.47-5.62c.055-.022.109-.05.16-.08a1.45 1.45 0 0 0 .18-.08.83.83 0 0 0 .14-.13.62.62 0 0 0 .21-.31.61.61 0 0 0 .07-.17.69.69 0 0 0 0-.2 1 1 0 0 0 0-.17 3.4 3.4 0 0 1 0-.45 3.5 3.5 0 0 1 7 0c.01.15.01.3 0 .45a.807.807 0 0 0 0 .16c-.01.07-.01.14 0 .21a.61.61 0 0 0 .07.17.62.62 0 0 0 .21.31.83.83 0 0 0 .14.13c.058.03.118.058.18.08.051.027.105.05.16.07a3.5 3.5 0 1 1-3.47 5.62l-.02.01Z"/>
</svg>
