<svg xmlns="http://www.w3.org/2000/svg" width="24" height="24" fill="currentColor" viewBox="0 0 24 24">
  <path d="M18.5 2h-12a3 3 0 0 0-3 3v12a3 3 0 0 0 2 2.82V21a1 1 0 1 0 2 0v-1h10v1a1 1 0 0 0 2 0v-1.18a3 3 0 0 0 2-2.82V5a3 3 0 0 0-3-3Zm-13 6h6v4h-6V8Zm14 9a1 1 0 0 1-1 1h-12a1 1 0 0 1-1-1v-3h14v3Zm0-5h-6V8h6v4Zm0-6h-14V5a1 1 0 0 1 1-1h12a1 1 0 0 1 1 1v1Zm-3.38 10.92c.12.051.25.078.38.08a1 1 0 0 0 1-1 1.362 1.362 0 0 0 0-.2.64.64 0 0 0-.06-.18.762.762 0 0 0-.09-.18 1.573 1.573 0 0 0-.12-.15l-.15-.12a.762.762 0 0 0-.18-.09.64.64 0 0 0-.2-.08 1 1 0 0 0-.91.27 1.573 1.573 0 0 0-.12.15.762.762 0 0 0-.09.18.64.64 0 0 0-.06.18 1.362 1.362 0 0 0 0 .2 1 1 0 0 0 .29.7 1 1 0 0 0 .31.24Zm-8 0c.12.051.25.078.38.08a1 1 0 0 0 1-1 1.36 1.36 0 0 0 0-.2.64.64 0 0 0-.06-.18.76.76 0 0 0-.09-.18 1.575 1.575 0 0 0-.12-.15l-.15-.12-.18-.09-.2-.08a1 1 0 0 0-.91.27 1.575 1.575 0 0 0-.12.15.76.76 0 0 0-.09.18.64.64 0 0 0-.06.18 1.36 1.36 0 0 0 0 .2 1 1 0 0 0 .29.7 1 1 0 0 0 .31.24Z"/>
</svg>
