<svg xmlns="http://www.w3.org/2000/svg" width="24" height="24" fill="currentColor" viewBox="0 0 24 24">
  <path d="M11.29 17.71a1.002 1.002 0 0 0 1.42 0 1.15 1.15 0 0 0 .21-.33.94.94 0 0 0 0-.76 1.15 1.15 0 0 0-.21-.33 1.002 1.002 0 0 0-1.42 0 1.15 1.15 0 0 0-.21.33.94.94 0 0 0 0 .76c.05.121.122.233.21.33ZM8.66 4H16a1 1 0 0 1 1 1v7.34a1 1 0 0 0 2 0V5a3 3 0 0 0-3-3H8.66a1 1 0 0 0 0 2Zm13.05 16.29-18-18a1.004 1.004 0 0 0-1.42 1.42L5 6.41V19a3 3 0 0 0 3 3h8a3 3 0 0 0 2.76-1.83l1.53 1.54a1.002 1.002 0 0 0 1.639-.325 1 1 0 0 0-.219-1.095ZM17 19a1 1 0 0 1-1 1H8a1 1 0 0 1-1-1V8.41l10 10V19Z"/>
</svg>
