<svg xmlns="http://www.w3.org/2000/svg" width="24" height="24" fill="currentColor" viewBox="0 0 24 24">
  <path d="M6.92 5.51 3.71 2.29a1.004 1.004 0 1 0-1.42 1.42L4.56 6A15.21 15.21 0 0 0 1.4 8.39a1 1 0 0 0 0 1.41 1 1 0 0 0 .71.3 1 1 0 0 0 .7-.29 13.07 13.07 0 0 1 3.24-2.35L7.54 9a10.78 10.78 0 0 0-3.32 2.27 1 1 0 1 0 1.42 1.4 8.8 8.8 0 0 1 3.45-2.12l1.62 1.61a7.07 7.07 0 0 0-3.66 1.94 1 1 0 1 0 1.42 1.4A5 5 0 0 1 12 14c.211 0 .422.017.63.05l7.66 7.66a1 1 0 0 0 1.42 0 1.002 1.002 0 0 0 0-1.42L6.92 5.51ZM12 16a3 3 0 1 0 0 5.999A3 3 0 0 0 12 16Zm0 4a1 1 0 1 1 0-2 1 1 0 0 1 0 2ZM22.61 8.39A15 15 0 0 0 10.29 4.1a1.007 1.007 0 0 0 .22 2A13.07 13.07 0 0 1 21.2 9.81a1 1 0 0 0 1.41-1.42Zm-4.25 4.24a1 1 0 0 0 1.42-1.4 10.75 10.75 0 0 0-4.84-2.82 1 1 0 1 0-.52 1.92 8.94 8.94 0 0 1 3.94 2.3Z"/>
</svg>
