<svg xmlns="http://www.w3.org/2000/svg" width="24" height="24" fill="currentColor" viewBox="0 0 24 24">
  <path d="M13.3 12.22A4.92 4.92 0 0 0 15 8.5a5 5 0 0 0-10 0 4.92 4.92 0 0 0 1.7 3.72A8 8 0 0 0 2 19.5a1 1 0 1 0 2 0 6 6 0 1 1 12 0 1 1 0 0 0 2 0 8 8 0 0 0-4.7-7.28ZM10 11.5a3 3 0 1 1 0-6 3 3 0 0 1 0 6Zm10.91.5.8-.79a1.004 1.004 0 0 0-1.42-1.42l-.79.8-.79-.8a1.003 1.003 0 1 0-1.42 1.42l.8.79-.8.79a1.002 1.002 0 0 0 .325 1.639 1 1 0 0 0 1.095-.219l.79-.8.79.8a1.002 1.002 0 0 0 1.639-.325 1 1 0 0 0-.219-1.095l-.8-.79Z"/>
</svg>
