<svg xmlns="http://www.w3.org/2000/svg" width="24" height="24" fill="currentColor" viewBox="0 0 24 24">
  <path d="M11.62 7.92A1 1 0 0 0 12 8h6a1 1 0 0 1 1 1v5.34a1 1 0 0 0 2 0V9a3 3 0 0 0-3-3h-3.59l2.3-2.29A1.005 1.005 0 0 0 16 1.996c-.266 0-.522.106-.71.294l-4 4a1 1 0 0 0-.21.33 1 1 0 0 0 0 .76 1 1 0 0 0 .54.54Zm10.09 12.37-18-18a1.004 1.004 0 0 0-1.42 1.42l2.54 2.53A3 3 0 0 0 3 9v8a3 3 0 0 0 3 3v1a1 1 0 1 0 2 0v-1h8v1a1 1 0 0 0 2 0v-1c.178-.005.355-.025.53-.06l1.76 1.77a1.002 1.002 0 0 0 1.639-.325 1 1 0 0 0-.219-1.095ZM6 18a1 1 0 0 1-1-1V9a1 1 0 0 1 1-1h.59l10 10H6Z"/>
</svg>
