<svg xmlns="http://www.w3.org/2000/svg" width="24" height="24" fill="currentColor" viewBox="0 0 24 24">
  <path d="M10.63 5.49a6 6 0 0 1 7.21 7.2 1 1 0 0 0 .74 1.21c.076.01.154.01.23 0a1 1 0 0 0 1-.76 8 8 0 0 0-9.61-9.62 1.026 1.026 0 1 0 .46 2l-.03-.03Zm11.08 14.58-4.27-4.27L3.71 2.07a1 1 0 1 0-1.42 1.41L5.5 6.69A8 8 0 0 0 6.34 17l4.95 4.95a.999.999 0 0 0 1.42 0l4-4 3.56 3.56a1 1 0 0 0 1.42-1.41l.02-.03Zm-9.59-6.76a2 2 0 0 1-1.989-1.272A2 2 0 0 1 10 11.21l2.12 2.1Zm-.12 6.5-4.24-4.24a6 6 0 0 1-.82-7.44L8.41 9.6a4 4 0 0 0 .76 4.55A4 4 0 0 0 12 15.33a3.929 3.929 0 0 0 1.73-.41l1.58 1.58L12 19.81Z"/>
</svg>
