<svg xmlns="http://www.w3.org/2000/svg" width="24" height="24" fill="currentColor" viewBox="0 0 24 24">
  <path d="m7.71 6.29-4-4a1.004 1.004 0 1 0-1.42 1.42L4.62 6A3 3 0 0 0 2 9v6a3 3 0 0 0 3 3h9a3 3 0 0 0 1.9-.69l4.39 4.4a1.002 1.002 0 0 0 1.639-.325 1 1 0 0 0-.219-1.095l-14-14ZM14 16H5a1 1 0 0 1-1-1V9a1 1 0 0 1 1-1h1.59l7.87 7.88A1 1 0 0 1 14 16Zm7.53-8.85a1 1 0 0 0-1 0L17 8.89A3 3 0 0 0 14 6h-1.34a1 1 0 1 0 0 2H14a1 1 0 0 1 1 1v1.5a1.628 1.628 0 0 0 0 .19.65.65 0 0 0 .05.2s.05.06.07.1c.04.076.091.147.15.21 0 0 .1.06.15.1l.17.11c.076.01.154.01.23 0a.697.697 0 0 0 .14 0c.063.004.127.004.19 0a.65.65 0 0 0 .2-.05L20 9.62v5.72a1 1 0 0 0 2 0V8a1 1 0 0 0-.47-.85Z"/>
</svg>
