<svg xmlns="http://www.w3.org/2000/svg" width="24" height="24" fill="currentColor" viewBox="0 0 24 24">
  <path d="M4.76 10.59a1.008 1.008 0 1 0 .26-2l-1.76-.44a1 1 0 1 0-.52 1.93l1.76.47a.781.781 0 0 0 .26.04ZM8.62 5a1 1 0 0 0 1 .74.82.82 0 0 0 .26 0 1 1 0 0 0 .7-1.22l-.47-1.76a1 1 0 1 0-1.93.52L8.62 5Zm4.83 10A1 1 0 0 0 12 15l-3.5 3.56a2.21 2.21 0 0 1-3.06 0 2.15 2.15 0 0 1 0-3.06L9 12a1 1 0 1 0-1.41-1.41L4 14.08A4.186 4.186 0 1 0 9.92 20l3.53-3.53a1 1 0 0 0 0-1.47ZM5.18 6.59a1 1 0 0 0 1.41 0 1 1 0 0 0 0-1.41L5.3 3.89A1 1 0 0 0 3.89 5.3l1.29 1.29Zm16.08 7.33-1.76-.47a1 1 0 1 0-.5 1.93l1.76.47h.26a1.008 1.008 0 1 0 .26-2l-.02.07ZM15.38 19a1 1 0 0 0-1.93.52l.47 1.76a1 1 0 0 0 1 .74c.086.01.174.01.26 0a1.003 1.003 0 0 0 .71-1.23L15.38 19Zm3.44-1.57a1 1 0 0 0-1.41 1.41l1.29 1.29a1 1 0 0 0 1.41 0 1 1 0 0 0 0-1.41l-1.29-1.29ZM21.2 7a4.16 4.16 0 0 0-7.12-3l-3.53 3.56A1.022 1.022 0 0 0 12 9l3.5-3.56a2.21 2.21 0 0 1 3.06 0 2.15 2.15 0 0 1 0 3.06L15 12a1 1 0 0 0 0 1.41 1 1 0 0 0 1.41 0L20 9.92A4.19 4.19 0 0 0 21.2 7Z"/>
</svg>
