<svg xmlns="http://www.w3.org/2000/svg" width="24" height="24" fill="currentColor" viewBox="0 0 24 24">
  <path d="m21.71 15.58-4.52-4.51c.095-.46.141-.93.14-1.4A7.669 7.669 0 0 0 6.42 2.72a1 1 0 0 0-.29 1.62l4.35 4.34-1.8 1.8-4.34-4.35a1 1 0 0 0-.88-.27 1 1 0 0 0-.74.56 7.67 7.67 0 0 0 7 10.91c.47.002.94-.045 1.4-.14l4.51 4.52a1.002 1.002 0 0 0 1.639-.325 1 1 0 0 0-.219-1.095l-4.9-4.9a1.001 1.001 0 0 0-.95-.26 5.88 5.88 0 0 1-1.48.2A5.671 5.671 0 0 1 4 9.67c-.001-.335.025-.67.08-1L8 12.6a1 1 0 0 0 1.42 0l3.18-3.21a1 1 0 0 0 0-1.39L8.71 4.08a6.12 6.12 0 0 1 1-.08 5.67 5.67 0 0 1 5.66 5.67c-.003.5-.07.997-.2 1.48a1 1 0 0 0 .26.95l4.9 4.9a1.004 1.004 0 1 0 1.42-1.42h-.04Z"/>
</svg>
