<svg xmlns="http://www.w3.org/2000/svg" width="24" height="24" fill="currentColor" viewBox="0 0 24 24">
  <path d="M10.19 5.23A7.12 7.12 0 0 1 12 5a7 7 0 0 1 7 7 7.118 7.118 0 0 1-.23 1.81 1 1 0 0 0 .7 1.23c.086.01.174.01.26 0a1 1 0 0 0 1-.74c.19-.752.28-1.525.27-2.3a9 9 0 0 0-9-9 8.91 8.91 0 0 0-2.33.3 1 1 0 0 0 .52 1.93Zm11.52 15.06-18-18a1.004 1.004 0 0 0-1.42 1.42L5 6.38a9 9 0 0 0 0 11.24l-1.71 1.67a1 1 0 0 0-.21 1.09A1 1 0 0 0 4 21h8a9 9 0 0 0 5.62-2l2.67 2.68a1.002 1.002 0 0 0 1.42 0 1 1 0 0 0 0-1.39ZM12 19H6.41l.64-.63a1 1 0 0 0 0-1.41 7 7 0 0 1-.65-9.15l9.79 9.79A7 7 0 0 1 12 19Z"/>
</svg>
