<svg xmlns="http://www.w3.org/2000/svg" width="24" height="24" fill="currentColor" viewBox="0 0 24 24">
  <path d="M7 13a1 1 0 1 0 0 2.001A1 1 0 0 0 7 13Zm12.76-3.89-1.35-4.06a3 3 0 0 0-2.85-2h-5.9a1 1 0 0 0 0 2h5.9a1 1 0 0 1 1 .69L17.61 9h-1.95a1 1 0 1 0 0 2H19a1 1 0 0 1 1 1v3.34a1 1 0 0 0 2 0V12a3 3 0 0 0-2.24-2.89Zm-16-6.82a1.022 1.022 0 0 0-1.47 1.42l2.82 2.81-.87 2.59A3 3 0 0 0 2 12v4a3 3 0 0 0 2 2.82V20a1 1 0 1 0 2 0v-1h11.59l.41.41V20a1 1 0 0 0 1 1 .91.91 0 0 0 .46-.13l.83.84a1.002 1.002 0 0 0 1.639-.325 1 1 0 0 0-.219-1.095l-17.95-18Zm3 5.81.9.9H6.39l.37-.9ZM5 17a1 1 0 0 1-1-1v-4a1 1 0 0 1 1-1h4.59l2 2H11a1 1 0 0 0 0 2h2a.91.91 0 0 0 .46-.13L15.59 17H5Z"/>
</svg>
