<svg xmlns="http://www.w3.org/2000/svg" width="24" height="24" fill="currentColor" viewBox="0 0 24 24">
  <path d="M19.5 4H10a1 1 0 0 0 0 2h9.5a1 1 0 0 1 1 1v6.76l-1.88-1.88a3 3 0 0 0-1.14-.71 1.001 1.001 0 1 0-.64 1.9.82.82 0 0 1 .36.23l3.31 3.29a.66.66 0 0 0 0 .15.835.835 0 0 0 0 .15c.038.064.081.124.13.18.024.04.055.078.09.11.06.055.127.103.2.14a.91.91 0 0 0 .48.14 1 1 0 0 0 1-1V7a3 3 0 0 0-2.91-3ZM3.21 2.29a1.004 1.004 0 0 0-1.42 1.42L3.18 5.1A3 3 0 0 0 2.5 7v10a3 3 0 0 0 3 3h12.59l1.7 1.71a1.002 1.002 0 0 0 1.639-.325 1 1 0 0 0-.219-1.095l-18-18ZM4.5 7a1 1 0 0 1 .12-.46l2.72 2.71a3 3 0 0 0-1 .63L4.5 11.76V7Zm1 11a1 1 0 0 1-1-1v-2.42l3.3-3.29a1 1 0 0 1 1.4 0L15.91 18H5.5Z"/>
</svg>
