<svg xmlns="http://www.w3.org/2000/svg" width="24" height="24" fill="currentColor" viewBox="0 0 24 24">
  <path d="m13.41 12 3.8-3.79a1.001 1.001 0 0 0 0-1.42l-4.5-4.5a1 1 0 0 0-.33-.21 1 1 0 0 0-.76 0 1 1 0 0 0-.54.54c-.051.12-.078.25-.08.38v6.59l-2.79-2.8a1.004 1.004 0 1 0-1.42 1.42l3.8 3.79-3.8 3.79a1.004 1.004 0 0 0 1.42 1.42l2.79-2.8V21c.002.13.029.26.08.38a1 1 0 0 0 .54.54.94.94 0 0 0 .76 0 .999.999 0 0 0 .33-.21l4.5-4.5a1 1 0 0 0 0-1.42L13.41 12ZM13 5.41l2.09 2.09L13 9.59V5.41Zm0 13.18v-4.18l2.09 2.09L13 18.59Z"/>
</svg>
