<svg xmlns="http://www.w3.org/2000/svg" width="24" height="24" fill="currentColor" viewBox="0 0 24 24">
  <path d="M12.43 4.1a1 1 0 0 0-1 .12L6.65 8H3a1 1 0 0 0-1 1v6a1 1 0 0 0 1 1h3.65l4.73 3.78A1 1 0 0 0 12 20a.911.911 0 0 0 .43-.1A1 1 0 0 0 13 19V5a1 1 0 0 0-.57-.9ZM11 16.92l-3.38-2.7A1 1 0 0 0 7 14H4v-4h3a1 1 0 0 0 .62-.22L11 7.08v9.84Zm4.14-12.83a1.01 1.01 0 0 0-.28 2 6 6 0 0 1 0 11.86 1.002 1.002 0 1 0 .14 2h.14a8 8 0 0 0 0-15.82v-.04Zm-.46 9.78a1.013 1.013 0 1 0 .32 2c.108-.001.216-.018.32-.05a4 4 0 0 0 0-7.54 1.003 1.003 0 0 0-.64 1.9 2 2 0 0 1 0 3.74v-.05Z"/>
</svg>
