<svg xmlns="http://www.w3.org/2000/svg" width="24" height="24" fill="currentColor" viewBox="0 0 24 24">
  <path d="M10.66 6H18a1 1 0 0 1 1 1v6a.94.94 0 0 1-.14.5 1 1 0 0 0 .31 1.38.94.94 0 0 0 .53.16 1 1 0 0 0 .84-.46c.3-.472.46-1.02.46-1.58V7a3 3 0 0 0-3-3h-7.34a1 1 0 1 0 0 2Zm11.05 14.29L5.86 4.45 3.71 2.29a1.004 1.004 0 1 0-1.42 1.42l1.4 1.39A3 3 0 0 0 3 7v6a3 3 0 0 0 3 3h5v2H7a1 1 0 0 0 0 2h10a1 1 0 0 0 .93-.66l2.36 2.37a1.002 1.002 0 0 0 1.639-.325 1 1 0 0 0-.219-1.095ZM6 14a1 1 0 0 1-1-1V7a1 1 0 0 1 .12-.46L12.59 14H6Zm7 4v-2h1.59l2 2H13Z"/>
</svg>
