<svg xmlns="http://www.w3.org/2000/svg" width="24" height="24" fill="currentColor" viewBox="0 0 24 24">
  <path d="M12.43 4.1a1 1 0 0 0-1 .12L6.65 8H3a1 1 0 0 0-1 1v6a1 1 0 0 0 1 1h3.65l4.73 3.78A1 1 0 0 0 12 20a.911.911 0 0 0 .43-.1A1 1 0 0 0 13 19V5a1 1 0 0 0-.57-.9ZM11 16.92l-3.38-2.7A1 1 0 0 0 7 14H4v-4h3a1 1 0 0 0 .62-.22L11 7.08v9.84ZM19.91 12l1.8-1.79a1.007 1.007 0 0 0 0-1.42 1.003 1.003 0 0 0-1.42 0l-1.79 1.8-1.79-1.8a1.004 1.004 0 1 0-1.42 1.42l1.8 1.79-1.8 1.79a1 1 0 0 0 0 1.42 1.002 1.002 0 0 0 1.42 0l1.79-1.8 1.79 1.8a1.002 1.002 0 0 0 1.639-.326.999.999 0 0 0-.219-1.094L19.91 12Z"/>
</svg>
