<svg xmlns="http://www.w3.org/2000/svg" width="24" height="24" fill="currentColor" viewBox="0 0 24 24">
  <path d="M9.21 20.29a1 1 0 0 0-1.09-.21.93.93 0 0 0-.33.21 1.15 1.15 0 0 0-.21.33.94.94 0 0 0 0 .76.9.9 0 0 0 .54.54.94.94 0 0 0 .76 0 1.15 1.15 0 0 0 .33-.21 1 1 0 0 0 .21-1.09 1.15 1.15 0 0 0-.21-.33Zm4-2a.93.93 0 0 0-.33-.21 1 1 0 0 0-1.09.21 1.15 1.15 0 0 0-.21.33 1 1 0 0 0 1.3 1.3 1.15 1.15 0 0 0 .33-.21.999.999 0 0 0 .21-1.09 1.15 1.15 0 0 0-.21-.33Zm-4-2a1 1 0 0 0-1.09-.21 1 1 0 0 0-.33.21 1.15 1.15 0 0 0-.21.33 1 1 0 0 0 .21 1.09c.097.088.209.16.33.21a.94.94 0 0 0 .76 0 1.15 1.15 0 0 0 .33-.21 1 1 0 0 0 .21-1.09 1.15 1.15 0 0 0-.21-.33Zm2.91-2.21a1.001 1.001 0 0 0-.33.21 1.05 1.05 0 0 0-.29.71 1 1 0 0 0 .29.71c.097.088.209.16.33.21a.84.84 0 0 0 .38.08 1 1 0 0 0 1-1 1.05 1.05 0 0 0-.29-.71.999.999 0 0 0-1.09-.21ZM21 7h-.8a4.25 4.25 0 0 0-.52-1.27l.56-.56a1 1 0 0 0-1.41-1.41l-.56.56A4.25 4.25 0 0 0 17 3.8V3a1 1 0 0 0-2 0v.8a4.1 4.1 0 0 0-1.26.52l-.57-.56a1 1 0 0 0-1.41 1.41l.56.57c-.09.15-.16.32-.24.48A5.85 5.85 0 0 0 10.5 6a6 6 0 0 0-5.94 5.13 3.5 3.5 0 0 0-.46 6.58c.127.05.263.078.4.08a1 1 0 0 0 .4-1.92A1.48 1.48 0 0 1 4 14.5 1.5 1.5 0 0 1 5.5 13a1 1 0 0 0 1-1 4 4 0 0 1 7.78-1.29 1 1 0 0 0 .78.67 2.32 2.32 0 0 1 .94 4.23 1.005 1.005 0 0 0 1.1 1.68 4.34 4.34 0 0 0 1.6-5.17l.13.12a1 1 0 0 0 1.41 0 1 1 0 0 0 0-1.41l-.56-.56A4.25 4.25 0 0 0 20.2 9h.8a1 1 0 1 0 0-2Zm-3.34 2.65a2.09 2.09 0 0 1-.6.42A4.17 4.17 0 0 0 16 9.54a6.12 6.12 0 0 0-2.09-2.49 2.42 2.42 0 0 1 .46-.7 2.43 2.43 0 0 1 3.3 0 2.37 2.37 0 0 1 0 3.3h-.01Z"/>
</svg>
