<svg xmlns="http://www.w3.org/2000/svg" width="24" height="24" fill="currentColor" viewBox="0 0 24 24">
  <path d="M21 9h-.8a4.25 4.25 0 0 0-.52-1.27l.56-.56a1 1 0 0 0-1.41-1.41l-.56.56A4.25 4.25 0 0 0 17 5.8V5a1 1 0 0 0-2 0v.8a4.1 4.1 0 0 0-1.26.52l-.57-.56a1 1 0 0 0-1.41 1.41l.56.57c-.09.15-.16.32-.24.48A5.85 5.85 0 0 0 10.5 8a6 6 0 0 0-5.94 5.13A3.5 3.5 0 0 0 5.5 20h9.17A4.33 4.33 0 0 0 19 15.67a4.19 4.19 0 0 0-.3-1.55l.13.12a1 1 0 0 0 1.41 0 1 1 0 0 0 0-1.41l-.56-.56A4.25 4.25 0 0 0 20.2 11h.8a1 1 0 0 0 0-2Zm-6.33 9H5.5a1.5 1.5 0 1 1 0-3 1 1 0 0 0 1-1 4 4 0 0 1 7.78-1.29 1 1 0 0 0 .78.67 2.33 2.33 0 0 1-.39 4.62Zm3-6.35c-.176.166-.38.301-.6.4a4.494 4.494 0 0 0-1.07-.51 6.12 6.12 0 0 0-2.09-2.49c.11-.257.265-.49.46-.69a2.42 2.42 0 0 1 3.29 0 2.37 2.37 0 0 1 0 3.3l.01-.01Z"/>
</svg>
