<svg xmlns="http://www.w3.org/2000/svg" width="24" height="24" fill="currentColor" viewBox="0 0 24 24">
  <path d="M9.21 16.29a1 1 0 0 0-.33-.21 1 1 0 0 0-1.09.21 1.15 1.15 0 0 0-.21.33.84.84 0 0 0-.08.38 1 1 0 0 0 1.38.92c.121-.05.233-.122.33-.21a1 1 0 0 0 .21-1.09 1.15 1.15 0 0 0-.21-.33Zm0 4a1.15 1.15 0 0 0-.33-.21 1 1 0 0 0-1.09.21 1.15 1.15 0 0 0-.21.33 1 1 0 1 0 1.84 0 1.15 1.15 0 0 0-.21-.33Zm3.85-6.12-.18-.09-.18-.08a1 1 0 0 0-.58.06.93.93 0 0 0-.546.536 1 1 0 0 0-.074.384 1 1 0 0 0 .29.71c.097.088.209.16.33.21a.94.94 0 0 0 .76 0c.121-.05.233-.122.33-.21a1 1 0 0 0 .29-.69 1.05 1.05 0 0 0-.29-.71l-.15-.12Zm.15 4.12a.999.999 0 0 0-1.09-.21.9.9 0 0 0-.54.54 1 1 0 0 0 .21 1.09c.097.088.209.16.33.21a.94.94 0 0 0 .76 0 1.15 1.15 0 0 0 .33-.21.999.999 0 0 0 .21-1.09 1.15 1.15 0 0 0-.21-.33ZM21.7 7.07a1 1 0 0 0-.94-.26 3 3 0 0 1-.65.08 3 3 0 0 1-3-3c.003-.219.03-.437.08-.65A1 1 0 0 0 16 2a4.93 4.93 0 0 0-3.83 4.21A6.24 6.24 0 0 0 10.5 6a6 6 0 0 0-5.94 5.13 3.5 3.5 0 0 0-.46 6.58c.127.05.263.078.4.08a1 1 0 0 0 .4-1.92A1.48 1.48 0 0 1 4 14.5 1.5 1.5 0 0 1 5.5 13a1 1 0 0 0 1-1 4 4 0 0 1 4-4 4.06 4.06 0 0 1 2.19.66 4 4 0 0 1 1.58 2 1 1 0 0 0 .78.67 2.32 2.32 0 0 1 .95 4.28 1.005 1.005 0 0 0 1.1 1.68 4.34 4.34 0 0 0 1.9-3.62 4.23 4.23 0 0 0-.49-2A4.94 4.94 0 0 0 22 8a1 1 0 0 0-.3-.93Zm-4.59 2.82c-.14.01-.28.01-.42 0a4.603 4.603 0 0 0-.69-.35 6.06 6.06 0 0 0-1.82-2.28v-.37a3 3 0 0 1 1.05-2.28 5 5 0 0 0 4.23 4.23 3 3 0 0 1-2.35 1.05Z"/>
</svg>
