<svg xmlns="http://www.w3.org/2000/svg" width="24" height="24" fill="currentColor" viewBox="0 0 24 24">
  <path d="M12.89 18.06a1 1 0 0 0-1.28.6l-.73 2a1 1 0 0 0 1.88.68l.73-2a1 1 0 0 0-.6-1.28Zm-4 0a1 1 0 0 0-1.28.6l-.73 2a1 1 0 0 0 1.88.68l.73-2a1 1 0 0 0-.6-1.28Zm0-7a1 1 0 0 0-1.28.6l-1.1 3a1 1 0 0 0 1.88.68l1.1-3a1 1 0 0 0-.6-1.28Zm4 0a1 1 0 0 0-1.28.6l-1.1 3a1 1 0 0 0 1.88.68l1.1-3a1 1 0 0 0-.6-1.28Zm5.53-4.84A7 7 0 0 0 5.06 8.11 4 4 0 0 0 2 12a4 4 0 0 0 1.34 3 1 1 0 1 0 1.32-1.5A1.999 1.999 0 0 1 4 12a2 2 0 0 1 2-2 1 1 0 0 0 1-1 5 5 0 0 1 9.73-1.61 1 1 0 0 0 .78.67A3 3 0 0 1 20 11a2.91 2.91 0 0 1-.74 2 1 1 0 0 0 1.48 1.34 5 5 0 0 0-2.32-8.08v-.04Zm-1.53 11.84a1 1 0 0 0-1.28.6l-.73 2a1 1 0 0 0 1.88.68l.73-2a1 1 0 0 0-.6-1.28Zm0-7a1 1 0 0 0-1.28.6l-1.1 3a1 1 0 0 0 1.88.68l1.1-3a1 1 0 0 0-.6-1.28Z"/>
</svg>
