<svg xmlns="http://www.w3.org/2000/svg" width="24" height="24" fill="currentColor" viewBox="0 0 24 24">
  <path d="M12 19H7a1 1 0 0 0 0 2h5a1.013 1.013 0 0 1 1 1 1 1 0 1 0 2 0 3.003 3.003 0 0 0-3-3Zm2-10a1 1 0 1 0 0-2 1 1 0 0 0 0 2Zm4 0h2a3.003 3.003 0 0 0 3-3 1 1 0 0 0-2 0 1.013 1.013 0 0 1-1 1h-2a1 1 0 1 0 0 2Zm2 6h-2.16c.574-.898.963-1.9 1.146-2.95a1 1 0 0 0-1.305-1.117 5.967 5.967 0 0 1-1.92.317A6.061 6.061 0 0 1 9.7 5.2c.007-.351.04-.702.098-1.049A1 1 0 0 0 8.49 3.053 8.032 8.032 0 0 0 4.266 15H3a1 1 0 0 0 0 2h5a1 1 0 1 0 0-2H6.83a6.028 6.028 0 0 1 .882-9.36 8.066 8.066 0 0 0 8.837 7.571A6.028 6.028 0 0 1 15.277 15H12a1 1 0 0 0 0 2h8a1 1 0 0 1 0 2 1 1 0 0 0 0 2 3 3 0 0 0 0-6ZM2.62 19.08c-.121.05-.233.122-.33.21a1.028 1.028 0 0 0-.175 1.183.99.99 0 0 0 1.265.447c.121-.05.233-.122.33-.21A.993.993 0 0 0 4 20a1.052 1.052 0 0 0-.29-.71 1.001 1.001 0 0 0-1.09-.21Z"/>
</svg>
