<?xml version="1.0" encoding="utf-8"?>
<!-- Generator: Adobe Illustrator 28.0.0, SVG Export Plug-In . SVG Version: 6.00 Build 0)  -->
<svg version="1.1" id="Camada_1" xmlns="http://www.w3.org/2000/svg" xmlns:xlink="http://www.w3.org/1999/xlink" x="0px" y="0px"
	 viewBox="0 0 32.2 32.66" style="enable-background:new 0 0 32.2 32.66;" xml:space="preserve">
<style type="text/css">
	.st0{fill:#28A348;}
	.st1{fill:#FFFFFF;}
</style>
<g>
	<g>
		<path d="M-174.92-16.02v-16.45h6.7c1.73,0,3.06,0.42,3.99,1.25c0.93,0.83,1.4,1.99,1.4,3.47c0,1.45-0.47,2.59-1.4,3.44
			s-2.26,1.27-3.99,1.27h-4.76v7.02H-174.92z M-172.98-24.65h4.57c1.2,0,2.1-0.27,2.72-0.82c0.61-0.54,0.92-1.31,0.92-2.29
			c0-1-0.31-1.77-0.92-2.31c-0.62-0.54-1.52-0.82-2.72-0.82h-4.57V-24.65z"/>
		<path d="M-160.49-16.02V-33.2h1.89v17.18H-160.49z"/>
		<path d="M-151.37-15.81c-1.38,0-2.43-0.38-3.14-1.14c-0.71-0.76-1.06-1.93-1.06-3.5v-7.28h1.89v7.24c0,1.07,0.22,1.86,0.65,2.37
			c0.44,0.51,1.11,0.76,2.03,0.76c1.03,0,1.85-0.33,2.47-1c0.62-0.67,0.93-1.56,0.93-2.68v-6.68h1.89v11.72h-1.84v-2.64h0.3
			c-0.33,0.9-0.85,1.6-1.58,2.1C-149.53-16.06-150.39-15.81-151.37-15.81z"/>
		<path d="M-137.43-10.81c-1.01,0-1.95-0.12-2.8-0.37c-0.86-0.25-1.63-0.63-2.31-1.14l0.56-1.42c0.48,0.34,0.96,0.61,1.42,0.82
			s0.95,0.35,1.45,0.46s1.03,0.15,1.59,0.15c1.15,0,2.02-0.3,2.61-0.91c0.59-0.61,0.89-1.47,0.89-2.59v-3.43h0.23
			c-0.25,0.92-0.76,1.65-1.54,2.18c-0.78,0.54-1.69,0.81-2.73,0.81c-1.07,0-2-0.24-2.79-0.71c-0.79-0.47-1.39-1.15-1.82-2.03
			c-0.43-0.88-0.64-1.92-0.64-3.12c0-1.18,0.21-2.21,0.64-3.08c0.43-0.87,1.03-1.54,1.82-2.02s1.72-0.71,2.79-0.71
			c1.06,0,1.97,0.26,2.74,0.79c0.77,0.53,1.28,1.26,1.53,2.19l-0.23-0.23l0.21-2.54h1.84c-0.06,0.45-0.11,0.91-0.14,1.37
			c-0.03,0.46-0.05,0.91-0.05,1.34v8.94c0,1.74-0.45,3.06-1.34,3.94C-134.4-11.26-135.71-10.81-137.43-10.81z M-137.71-17.81
			c1.14,0,2.03-0.38,2.68-1.13c0.65-0.75,0.98-1.82,0.98-3.19s-0.33-2.43-0.98-3.17c-0.65-0.75-1.55-1.12-2.68-1.12
			c-1.12,0-2.02,0.37-2.68,1.12c-0.67,0.75-1,1.81-1,3.17s0.33,2.43,1,3.19C-139.73-18.19-138.83-17.81-137.71-17.81z"/>
		<path d="M-129.31-30.39v-2.12h2.33v2.12H-129.31z M-129.08-16.02v-11.72h1.89v11.72H-129.08z"/>
		<path d="M-124.08-16.02v-9.01c0-0.44-0.02-0.88-0.06-1.34c-0.04-0.46-0.08-0.91-0.13-1.37h1.82l0.23,2.57h-0.28
			c0.34-0.9,0.89-1.59,1.65-2.07c0.75-0.47,1.63-0.71,2.63-0.71c1.38,0,2.43,0.37,3.14,1.11c0.71,0.74,1.06,1.9,1.06,3.49v7.33
			h-1.89v-7.21c0-1.1-0.22-1.91-0.67-2.42c-0.44-0.51-1.13-0.76-2.07-0.76c-1.09,0-1.95,0.33-2.59,1c-0.64,0.67-0.96,1.56-0.96,2.68
			v6.7H-124.08z"/>
		<path d="M-111.71-16.02v-3.15l8.33-11.02v1.24h-8.33v-3.52h12.44v3.15l-8.36,11.02v-1.24h8.71v3.52H-111.71z"/>
		<path d="M-93.16-15.74c-1.01,0-1.91-0.25-2.68-0.76c-0.78-0.51-1.39-1.22-1.83-2.14s-0.67-2.02-0.67-3.31
			c0-1.28,0.22-2.38,0.67-3.31s1.06-1.65,1.84-2.15c0.79-0.5,1.68-0.75,2.67-0.75c0.93,0,1.77,0.22,2.51,0.65
			c0.74,0.44,1.23,1.01,1.46,1.73h-0.23l0.26-2.1h4.01c-0.06,0.53-0.11,1.07-0.14,1.61c-0.03,0.54-0.05,1.08-0.05,1.61v8.64h-4.13
			l-0.02-2.01h0.26c-0.23,0.69-0.72,1.24-1.46,1.66C-91.44-15.95-92.26-15.74-93.16-15.74z M-91.81-18.84c0.7,0,1.27-0.25,1.7-0.73
			c0.44-0.49,0.65-1.28,0.65-2.37c0-1.09-0.22-1.88-0.65-2.37c-0.44-0.49-1-0.74-1.7-0.74s-1.27,0.25-1.7,0.74
			c-0.44,0.49-0.65,1.28-0.65,2.37c0,1.09,0.21,1.88,0.64,2.37C-93.09-19.09-92.52-18.84-91.81-18.84z"/>
		<path d="M-83.36-10.98v-13.68c0-0.53-0.02-1.07-0.05-1.61c-0.03-0.54-0.08-1.08-0.14-1.61h4.01l0.26,2.1h-0.23
			c0.23-0.72,0.72-1.29,1.46-1.73c0.74-0.44,1.57-0.65,2.49-0.65c1.04,0,1.95,0.25,2.72,0.75c0.77,0.5,1.37,1.21,1.81,2.15
			c0.44,0.93,0.65,2.04,0.65,3.31c0,1.29-0.21,2.4-0.64,3.31s-1.03,1.63-1.81,2.14c-0.78,0.51-1.69,0.76-2.73,0.76
			c-0.9,0-1.72-0.21-2.45-0.63c-0.73-0.42-1.21-0.97-1.45-1.66h0.26v7.05H-83.36z M-76.92-18.84c0.72,0,1.29-0.25,1.72-0.73
			c0.43-0.49,0.64-1.28,0.64-2.37c0-1.09-0.21-1.88-0.64-2.37c-0.43-0.49-1-0.74-1.72-0.74c-0.68,0-1.25,0.25-1.69,0.74
			c-0.44,0.49-0.67,1.28-0.67,2.37c0,1.09,0.22,1.88,0.67,2.37C-78.16-19.09-77.6-18.84-76.92-18.84z"/>
	</g>
	<path class="st0" d="M-196.96-39.87l1.05,1.05c0.78,0.78,1.84,1.22,2.95,1.22h1.49c2.3,0,4.17,1.87,4.17,4.17v1.49
		c0,1.11,0.44,2.17,1.22,2.95l1.05,1.05c1.63,1.63,1.63,4.27,0,5.9l-1.05,1.05c-0.78,0.78-1.22,1.84-1.22,2.95v1.49
		c0,2.3-1.87,4.17-4.17,4.17h-1.49c-1.11,0-2.17,0.44-2.95,1.22l-1.05,1.05c-1.63,1.63-4.27,1.63-5.9,0l-1.05-1.05
		c-0.78-0.78-1.84-1.22-2.95-1.22h-1.49c-2.3,0-4.17-1.87-4.17-4.17v-1.49c0-1.11-0.44-2.17-1.22-2.95l-1.05-1.05
		c-1.63-1.63-1.63-4.27,0-5.9l1.05-1.05c0.78-0.78,1.22-1.84,1.22-2.95v-1.49c0-2.3,1.87-4.17,4.17-4.17h1.49
		c1.11,0,2.17-0.44,2.95-1.22l1.05-1.05C-201.23-41.5-198.59-41.5-196.96-39.87z"/>
	<g>
		<path class="st1" d="M-191.17-18.11c-0.55,0.5-1.07,1.03-1.72,1.4c-0.65,0.35-1.33,0.59-2.06,0.66c-0.03,0-0.08,0.02-0.11,0.03
			h-0.97c-0.23-0.03-0.47-0.07-0.7-0.12c-0.95-0.18-1.82-0.56-2.64-1.06c-1.17-0.7-2.17-1.59-3.11-2.58
			c-1.17-1.23-2.24-2.56-3.07-4.07c-0.55-1-0.97-2.05-1.13-3.19c-0.22-1.51,0.03-2.93,0.93-4.19c0.19-0.26,0.41-0.51,0.65-0.73
			c0.36-0.34,0.74-0.65,1.12-0.96c0.53-0.41,1.11-0.39,1.59,0.08c0.23,0.24,0.47,0.49,0.65,0.76c0.37,0.57,0.72,1.15,1.06,1.75
			c0.18,0.3,0.27,0.64,0.29,1c0.03,0.51-0.13,0.94-0.5,1.28c-0.32,0.3-0.65,0.6-1.01,0.84c-0.7,0.5-0.85,1.11-0.54,1.89
			c0.18,0.47,0.43,0.92,0.71,1.34c0.68,0.98,1.47,1.88,2.39,2.66c0.43,0.36,0.89,0.69,1.46,0.81c0.47,0.1,0.87-0.01,1.22-0.34
			c0.33-0.31,0.65-0.64,1.01-0.93c0.61-0.53,1.3-0.59,2.02-0.22c0.65,0.34,1.2,0.83,1.74,1.33c0.31,0.28,0.6,0.59,0.86,0.91
			C-190.58-19.18-190.63-18.6-191.17-18.11z"/>
	</g>
</g>
<g>
	<path class="st0" d="M19.05,1.45L20.1,2.5c0.78,0.78,1.84,1.22,2.95,1.22h1.49c2.3,0,4.17,1.87,4.17,4.17v1.49
		c0,1.11,0.44,2.17,1.22,2.95l1.05,1.05c1.63,1.63,1.63,4.27,0,5.9l-1.05,1.05c-0.78,0.78-1.22,1.84-1.22,2.95v1.49
		c0,2.3-1.87,4.17-4.17,4.17h-1.49c-1.11,0-2.17,0.44-2.95,1.22l-1.05,1.05c-1.63,1.63-4.27,1.63-5.9,0l-1.05-1.05
		c-0.78-0.78-1.84-1.22-2.95-1.22H7.67c-2.3,0-4.17-1.87-4.17-4.17v-1.49c0-1.11-0.44-2.17-1.22-2.95l-1.05-1.05
		c-1.63-1.63-1.63-4.27,0-5.9l1.05-1.05c0.78-0.78,1.22-1.84,1.22-2.95V7.89c0-2.3,1.87-4.17,4.17-4.17h1.49
		c1.11,0,2.17-0.44,2.95-1.22l1.05-1.05C14.78-0.18,17.42-0.18,19.05,1.45z"/>
	<g>
		<path class="st1" d="M24.85,23.21c-0.55,0.5-1.07,1.03-1.72,1.4c-0.65,0.35-1.33,0.59-2.06,0.66c-0.03,0-0.08,0.02-0.11,0.03
			h-0.97c-0.23-0.03-0.47-0.07-0.7-0.12c-0.95-0.18-1.82-0.56-2.64-1.06c-1.17-0.7-2.17-1.59-3.11-2.58
			c-1.17-1.23-2.24-2.56-3.07-4.07c-0.55-1-0.97-2.05-1.13-3.19c-0.22-1.51,0.03-2.93,0.93-4.19c0.19-0.26,0.41-0.51,0.65-0.73
			c0.36-0.34,0.74-0.65,1.12-0.96c0.53-0.41,1.11-0.39,1.59,0.08c0.23,0.24,0.47,0.49,0.65,0.76c0.37,0.57,0.72,1.15,1.06,1.75
			c0.18,0.3,0.27,0.64,0.29,1c0.03,0.51-0.13,0.94-0.5,1.28c-0.32,0.3-0.65,0.6-1.01,0.84c-0.7,0.5-0.85,1.11-0.54,1.89
			c0.18,0.47,0.43,0.92,0.71,1.34c0.68,0.98,1.47,1.88,2.39,2.66c0.43,0.36,0.89,0.69,1.46,0.81c0.47,0.1,0.87-0.01,1.22-0.34
			c0.33-0.31,0.65-0.64,1.01-0.93c0.61-0.53,1.3-0.59,2.02-0.22c0.65,0.34,1.2,0.83,1.74,1.33c0.31,0.28,0.6,0.59,0.86,0.91
			C25.44,22.14,25.39,22.72,24.85,23.21z"/>
	</g>
</g>
</svg>
